<?xml version="1.0" encoding="UTF-8" standalone="no"?>
<!-- Created with Inkscape (http://www.inkscape.org/) -->

<svg
   xmlns:dc="http://purl.org/dc/elements/1.1/"
   xmlns:cc="http://creativecommons.org/ns#"
   xmlns:rdf="http://www.w3.org/1999/02/22-rdf-syntax-ns#"
   xmlns:svg="http://www.w3.org/2000/svg"
   xmlns="http://www.w3.org/2000/svg"
   xmlns:sodipodi="http://sodipodi.sourceforge.net/DTD/sodipodi-0.dtd"
   xmlns:inkscape="http://www.inkscape.org/namespaces/inkscape"
   width="1400"
   height="1100"
   id="svg2996"
   version="1.1"
   inkscape:version="0.48.0 r9654"
   sodipodi:docname="administrative-regionsonly.svg">
  <defs
     id="mapdefs">
    <style
       type="text/css"
       id="style5">
      .subregion {
        fill-opacity: 1;
        stroke:#000000;
        stroke-width: 2px;
        stroke-linecap: butt;
        stroke-linejoin: miter;
        stroke-opacity: 1;
       }
    </style>
  </defs>
  <sodipodi:namedview
     id="base"
     pagecolor="#ffffff"
     bordercolor="#666666"
     borderopacity="1.0"
     inkscape:pageopacity="0"
     inkscape:pageshadow="2"
     inkscape:zoom="0.35"
     inkscape:cx="1003.2366"
     inkscape:cy="720.37638"
     inkscape:document-units="px"
     inkscape:current-layer="map"
     showgrid="false"
     fit-margin-top="0"
     fit-margin-left="0"
     fit-margin-right="0"
     fit-margin-bottom="0"
     inkscape:window-width="1024"
     inkscape:window-height="544"
     inkscape:window-x="0"
     inkscape:window-y="24"
     inkscape:window-maximized="1" />
  <metadata
     id="metadata3001">
    <rdf:RDF>
      <cc:Work
         rdf:about="">
        <dc:format>image/svg+xml</dc:format>
        <dc:type
           rdf:resource="http://purl.org/dc/dcmitype/StillImage" />
        <dc:title />
      </cc:Work>
    </rdf:RDF>
  </metadata>
  <g
     inkscape:label="Map"
     inkscape:groupmode="layer"
     id="map"
     transform="translate(0,50)">
    <path
       style="fill:#007f00"
       class="subregion"
       d="m 239.15362,343.6139 c 5.82734,-0.70785 4.89001,-3.65518 3.91434,-7.95495 -0.4588,-8.06772 -9.55236,-4.08334 -12.75318,-11.74303 -2.08744,-4.7203 -10.09903,-1.52843 -7.32361,-9.97525 0.57982,-5.42997 -6.22259,-3.34093 -3.78807,-9.47018 1.01068,-4.16919 0.71128,-7.46867 -1.76776,-12.12183 2.14566,-6.84145 -3.4857,-8.01722 -9.72272,-0.75762 -2.4056,1.65285 -5.11101,0.49182 -5.80838,5.17703 -1.70599,4.3484 -5.77926,1.51904 -6.31345,-5.17703 2.059,-6.64466 0.40212,-7.27503 5.80837,-11.99556 2.75913,-4.17964 7.72803,-9.65179 9.15451,-17.61453 11.08659,-4.37212 7.37918,-7.33634 5.61898,-16.98319 -1.11119,-3.90027 -4.7111,-7.44037 0.0631,-11.49048 4.24447,-4.87892 4.14482,-5.72599 -0.1894,-9.47019 -1.32395,-1.53942 -2.76629,-4.32777 -2.13655,-7.53288 1.08425,-5.51833 0.90569,-9.25353 -0.76764,-18.09974 1.43429,-5.16721 2.53511,-14.12432 -2.27285,-17.04632 -5.17908,-1.84993 -4.65384,-10.04267 -6.94479,-14.77348 -3.24489,-2.22758 -9.85092,-2.46456 -11.39961,-0.36798 -1.67298,2.26484 -3.40475,1.82968 -5.26791,2.89336 -3.73111,4.59116 -2.03133,6.6836 -7.26047,11.36421 -4.68604,7.24481 -7.96592,-0.49832 -10.54347,6.18719 -3.00389,4.3793 -3.37366,1.31438 -5.7424,-0.1439 -1.09796,-0.67594 -3.87453,1.62201 -6.00063,-0.55058 -0.0809,-11.18305 0.39935,-14.37224 -3.28299,-20.645 0.22334,-6.55922 -0.0252,-12.32139 -0.1894,-18.75095 5.20637,-4.3119 1.20655,-4.75589 -1.89404,-6.25032 -1.02765,-8.53524 -3.07957,-3.07572 -5.42957,-8.64943 2.70706,-7.25194 -1.5555,-9.86677 -1.19956,-15.08916 -0.19723,-5.79658 -7.33052,-9.20211 -10.48033,-4.04061 -9.19521,4.18712 -8.42999,-2.56851 -16.92005,0.37881 -3.54973,2.1334 -8.59123,1.72066 -9.47018,6.69226 -3.40113,5.40016 -15.528189,0.83553 -12.879448,10.6066 -3.3553,-0.14956 -11.866661,-2.81248 -13.63706,1.95717 3.600414,7.24627 -4.428744,9.12763 -10.03839,7.19734 1.88862,-5.55458 -1.307123,-6.83966 -6.250319,-7.38674 -5.640125,-0.73039 -3.584325,4.53611 -6.944799,7.70241 -1.966911,1.65477 -5.758127,8.6605 -4.293148,1.83091 -0.294663,-5.59735 -4.755818,-4.76395 -0.883884,-14.33154 2.471445,-5.84843 -3.015616,-3.0328 -5.808377,-12.12183 -1.960778,-4.98668 -10.776095,-9.53247 -5.366436,-15.02602 4.748746,-1.832341 8.634177,-2.887465 10.796006,-8.775702 4.710801,-3.06311 5.495033,-0.05156 8.460028,0.378813 0.75979,-5.871775 5.657024,-5.824586 10.101525,-5.618975 4.228099,-0.588246 9.542365,-2.098322 8.712566,-6.944803 -1.1843,-3.811969 -13.037349,-2.060716 -13.384521,-8.460026 1.540497,-4.976071 -7.855733,-4.511613 -10.922275,-9.280781 0.105255,-3.802314 3.02885,-8.916584 -4.861359,-8.144348 -5.923127,1.965947 -7.478234,-7.23412 -14.015866,-2.777923 -4.006446,3.873091 -9.417009,0.264366 -9.59645,-4.293148 -2.626812,-4.398011 -6.07022,-7.248596 -10.985379,-8.838835 -2.160512,-6.289469 3.484277,-8.126681 2.651651,-12.879445 C 14.664685,21.06882 14.194328,18.430699 5.8715117,16.008804 1.1892506,9.4540806 5.7282982,10.210696 6.2201528,8.2541864 6.9630351,5.2991345 4.7215895,4.6364802 7.5761441,2.43488 c 5.2849269,-3.40614901 8.2391339,-2.60935966 8.4600279,-9.470181 3.949827,-8.732712 13.157951,-1.2763551 20.076782,-8.207489 3.462615,-1.690975 2.940763,-4.492002 9.975256,-7.323606 6.848126,-2.321256 0.460947,-10.622972 13.258252,-9.217642 6.458775,-0.209362 7.710317,-4.908851 18.182746,-1.136422 4.971033,-0.326402 4.779489,-4.784128 14.268405,-2.777919 4.988447,-0.230977 2.150281,-7.042545 13.637057,-2.904189 9.33743,1.977937 6.26346,12.341618 16.9832,7.576145 9.07238,-2.035433 15.8344,-2.272009 25.31694,-0.505077 7.85963,8.168577 5.75715,16.824726 9.28078,17.614535 6.02041,-0.549991 3.77063,6.7595811 8.01809,9.5333147 -2.56652,5.06132458 -2.00426,8.3285688 3.28299,4.1668793 8.49084,-2.904074 13.42787,2.3756959 26.26396,-3.0935921 3.75958,-0.8272888 13.87417,-3.414089 17.67768,1.3889594 -2.40246,7.1995717 5.15953,3.8008849 6.31345,9.2807767 2.46015,7.282766 16.07214,0.095502 17.67767,9.47018 0.59705,5.29174 7.93776,4.559154 8.46002,10.227795 1.18765,5.038316 7.70665,5.39062 11.80616,-0.505077 6.38575,3.653382 8.26441,0.190827 7.51301,-5.050762 -0.27814,-5.636462 1.33747,-9.578934 6.18719,-8.965104 2.44068,1.269629 1.54123,5.612577 5.42957,6.313453 5.4687,2.273791 8.48629,8.36945 12.75317,7.197338 3.09538,0.823311 1.53873,3.465936 4.77881,3.371812 2.06416,-0.05996 3.28849,2.138612 7.59556,2.184026 7.79665,1.208878 11.97038,2.08358 23.04411,0.12627 8.54441,-1.333486 11.48157,1.553749 19.63484,-3.030458 4.02958,-3.067321 10.25648,0.439997 14.2684,2.399112 3.9762,5.471238 7.0208,2.420627 7.07107,9.722718 3.27975,3.216776 4.68937,4.458307 7.32361,9.659584 3.44329,1.559018 7.7797,3.477119 11.23794,7.134203 3.04569,3.954927 5.41596,8.486231 5.3033,12.87944 1.52204,7.811303 15.12378,-3.031078 16.92006,9.470186 5.32947,10.605191 1.59626,15.589729 7.82868,15.909898 3.7507,0.153078 0.60739,2.573245 5.93464,2.020313 6.93675,-4.101493 6.65392,-10.748518 13.88961,-6.881666 6.14549,10.125806 9.8787,2.378864 18.43528,7.891809 4.60778,3.965777 4.47911,-1.805842 8.27062,-4.293142 7.66251,1.503481 5.74317,-2.127196 12.0587,-5.177029 2.36918,-1.874742 10.00285,-4.214106 13.63706,0.378801 3.48349,1.5754 11.26595,-4.073591 12.12183,6.31346 3.38531,7.592217 13.87302,5.323677 19.50857,2.146569 5.26157,-1.701115 8.15855,-3.902356 14.71035,-3.282999 7.05829,2.892217 11.93913,1.309967 13.63705,3.91434 -1.94418,4.202167 -0.98381,8.083107 4.29315,5.177037 5.34614,-2.89809 -0.3464,5.43629 5.68211,5.42957 5.34561,1.64452 5.68506,6.05674 -0.25254,4.79822 -2.79814,-1.07002 -1.4775,6.80832 0.53226,7.02926 1.3555,0.14902 4.94538,0.43 8.43285,-1.78909 2.66676,-2.32043 5.78144,-1.18312 8.52315,-2.39911 5.56875,-0.65487 7.79153,3.95279 13.3214,4.98762 3.86576,-4.35488 7.9583,-6.36658 8.14435,-14.079 3.28233,-3.3747 7.31317,-5.25686 10.66974,-6.12405 -0.84727,12.34358 5.68682,10.49352 8.77569,4.41942 8.82208,1.19458 14.17202,-1.98542 10.29094,-6.944797 -2.66303,-10.671553 14.68694,-5.758973 22.22336,-11.301085 4.43521,3.8033 5.38992,1.857887 10.16465,1.641507 1.70996,10.804545 10.14378,11.319105 13.82647,13.131975 3.26229,-0.10253 5.68167,-6.842167 9.97525,-4.735087 3.58157,-0.48581 -1.76579,-5.30976 -1.38896,-7.70241 0.76565,-3.81926 4.42346,-4.459148 6.56599,-9.34391 0.75518,-5.094522 10.5488,-6.75899 10.10153,0.25253 -1.63035,8.258081 8.23525,1.626583 13.95273,1.262694 7.26148,-1.601617 12.13984,-3.33015 17.29887,-6.06091 0.24677,3.073657 0.56582,5.931162 0.5682,8.383206 0.60337,3.30044 -0.87917,9.210934 -3.84382,15.669717 -1.3692,6.43489 -0.75542,11.07947 -4.36367,13.44898 -2.61795,2.76786 -4.05557,5.76004 -4.79532,12.47311 -2.39096,5.27813 -2.55945,4.18837 -4.67486,7.35114 0.72634,9.87069 1.84879,15.66803 -6.81853,18.11961 -2.61467,0.99231 -5.63952,1.20404 -6.81853,7.38674 -3.08182,6.33336 -6.55466,10.55821 -5.42957,20.58186 4.23973,12.56726 8.35413,16.40435 1.51523,19.31917 -5.34161,3.63911 -12.41693,1.27609 -19.12976,3.91433 -9.10772,7.30136 -17.34788,10.44092 -32.89309,7.82869 -5.38759,-1.2761 -13.322,-0.84287 -21.21321,0.75762 -9.29752,2.14157 -4.70487,11.38165 -3.37336,17.37282 1.23016,5.76037 3.01032,9.72884 2.78163,13.97888 -0.71575,12.27741 5.97758,18.6682 2.90418,29.27911 -3.78165,3.83181 -5.77652,4.42199 -8.78503,4.56138 -4.29791,0.19913 -8.48275,1.34322 -11.01569,-1.17378 -0.6539,-2.91671 -2.61145,-2.62171 -3.01128,-5.71606 -0.31388,-2.42921 -2.51747,-3.36598 -5.13307,-5.26935 -8.31234,-6.51924 -8.90024,-1.79575 -11.61675,-2.84104 -10.2599,-7.25419 -10.54069,-11.02737 -16.79379,-10.0384 -2.39457,2.95512 5.64032,7.59971 -1.26269,7.44987 -3.06991,-6.02014 -4.14466,0.89332 -1.6415,5.17703 -1.74884,7.75656 -9.64145,5.90442 -13.13198,12.2481 -2.34961,6.90558 -6.79021,12.01648 -9.09137,18.56156 4.71136,3.60937 9.69926,7.7318 9.91212,11.23794 0.94093,8.51574 8.6791,4.61695 5.68211,18.11961 1.33088,9.46854 -1.78269,12.57937 2.08344,15.7205 7.48453,6.70521 1.94517,8.17665 2.90419,12.75318 -1.69024,7.90865 -5.5069,15.40398 -15.5311,13.76333 -5.32994,0.99095 -6.30051,4.92145 -15.15229,8.71256 -3.97988,1.75725 -4.69355,5.07201 -10.66974,7.82868 -4.55284,5.0427 -3.80979,1.56812 -9.9157,3.05536 -1.99767,2.41617 1.7778,3.16901 -1.00042,5.00405 -3.48031,2.29878 -4.18734,-2.41801 -6.88781,2.42093 -3.40689,1.23247 -9.19006,1.7397 -15.173,1.59578 -4.57688,-0.11009 -6.25821,-3.59197 -11.59605,-7.15162 -5.63761,-5.74249 -12.14967,-9.37726 -19.7611,-11.99556 -8.44897,-1.19721 -15.82418,-1.45871 -23.61232,-0.63135 -5.02703,-0.0463 -8.2002,-1.19807 -14.39467,-0.37881 -4.90292,-3.73212 -6.65675,-8.51842 -9.97526,-11.55362 -5.26275,5.42728 -14.43826,1.91708 -23.61231,-0.50507 0.34545,-4.91019 1.55592,-12.66794 6.31345,-15.84677 4.28909,-3.01056 7.39463,-5.0071 6.56599,-8.20749 -1.4082,-6.7655 -8.32245,-2.27271 -13.11386,-9.15704 -2.37762,-3.41619 -7.39201,-3.54014 -9.86711,-5.11137 -6.52135,-5.35316 -8.937,-8.52747 -11.55362,-11.99556 -3.53658,-6.00085 -12.38809,-6.3469 -12.87944,0.94702 -2.34732,5.30825 -4.69461,6.48196 -10.03839,6.9448 -5.21176,5.61584 -5.19167,8.24492 -8.27063,12.50064 0.51727,2.35746 1.63039,4.85943 0.10108,8.01038 2.83651,5.76431 3.16382,8.99862 -0.29048,9.60415 -4.62406,0.11784 -9.6865,-0.41185 -10.48034,-5.80837 -6.18837,-1.45011 -8.94468,-1.70213 -13.32139,2.84105 -4.04652,2.2088 -12.42235,0.25333 -10.03838,7.76555 1.08182,10.2605 -13.55924,10.19548 -15.15229,19.44544 -3.18511,5.36244 -8.78278,7.4607 -14.64721,5.05076 -1.52746,-2.75943 -0.37289,-5.59236 -5.17704,-7.57615 -14.48023,-1.97757 -20.55033,-5.28738 -29.04188,-9.84898 -4.52766,-3.34029 -7.24017,-3.05934 -7.07364,-14.02902 4.90162,-0.4262 6.31103,-4.78515 14.14471,-5.29015 z"
       id="tyndasub"
       inkscape:connector-curvature="0"
       sodipodi:nodetypes="ccccccccccccccscccscccsccccccccccccccccccccccccccccccscccccccccccccccccccccccscccccccccccccccccccccccscccccccccccccccccccccccccccccccscscccccccccccccccscsccccccccscccccccccccccccc" />
    <path
       sodipodi:nodetypes="ccccccccccccscscccccccccccccccccccccccccccccccccccccccccccccccccccccccccccccccccccccccccccccccccccccccccccccccccccccscccccscccccccccccccccccccccscccccccccccccccccccccccccccccccccccccccccccccccccccccccccccccc"
       inkscape:connector-curvature="0"
       id="zeyasub"
       class="subregion"
       d="m 557.35167,340.45717 c -3.86613,-3.14113 -0.75256,-6.25196 -2.08344,-15.7205 2.99699,-13.50266 -4.74118,-9.60387 -5.68211,-18.11961 -0.21286,-3.50614 -5.20076,-7.62857 -9.91212,-11.23794 2.30116,-6.54508 6.74176,-11.65598 9.09137,-18.56156 3.49053,-6.34368 11.38314,-4.49154 13.13198,-12.2481 -2.50316,-4.28371 -1.42841,-11.19717 1.6415,-5.17703 6.90301,0.14984 -1.13188,-4.49475 1.26269,-7.44987 6.2531,-0.98897 6.53389,2.78421 16.79379,10.0384 2.71651,1.04529 3.30441,-3.6782 11.61675,2.84104 2.6156,1.90337 4.81919,2.84014 5.13307,5.26935 0.39983,3.09435 2.35738,2.79935 3.01128,5.71606 2.53294,2.517 6.71778,1.37291 11.01569,1.17378 3.00851,-0.13939 5.00338,-0.72957 8.78503,-4.56138 3.0734,-10.61091 -3.61993,-17.0017 -2.90418,-29.27911 0.22869,-4.25004 -1.55147,-8.21851 -2.78163,-13.97888 -1.33151,-5.99117 -5.92416,-15.23125 3.37336,-17.37282 7.89121,-1.60049 15.82562,-2.03372 21.21321,-0.75762 15.54521,2.61223 23.78537,-0.52733 32.89309,-7.82869 6.71283,-2.63824 13.78815,-0.27522 19.12976,-3.91433 6.8389,-2.91482 2.7245,-6.75191 -1.51523,-19.31917 -1.12509,-10.02365 2.34775,-14.2485 5.42957,-20.58186 1.17901,-6.1827 4.20386,-6.39443 6.81853,-7.38674 8.66732,-2.45158 7.54487,-8.24892 6.81853,-18.11961 2.11541,-3.16277 2.2839,-2.07301 4.67486,-7.35114 0.73975,-6.71307 2.17737,-9.70525 4.79532,-12.47311 3.60825,-2.36951 2.99447,-7.01409 4.36367,-13.44898 2.96465,-6.458783 4.44719,-12.369277 3.84382,-15.669717 -0.002,-2.452044 -0.32143,-5.309549 -0.5682,-8.383206 l 0.88387,-0.723234 c 2.4807,-1.889971 6.24419,-0.369016 8.27035,-3.28301 2.8018,-0.06149 4.28335,2.871605 6.69177,3.661833 1.93066,2.735936 5.08908,3.734819 8.14388,4.040611 2.35838,2.12346 4.68575,4.166731 5.93412,7.00793 1.53167,1.474397 2.36411,4.332701 4.79769,2.399119 3.34033,-0.513591 6.94062,-0.830749 9.59602,-3.156722 1.98834,-1.268276 5.07418,-2.185382 5.61844,1.136415 -1.00876,2.667932 1.01681,4.827112 3.22291,2.967298 2.40628,-0.528753 3.66095,4.388145 6.31301,1.830896 0.93115,-1.424809 1.39159,-3.986634 3.66133,-2.399115 2.8419,1.304592 5.22295,-2.265913 8.39656,-1.073294 3.20496,0.0282 6.62154,-0.06313 8.08087,-3.409264 2.31662,-2.129101 2.86016,-5.316253 1.95687,-8.270636 -0.57149,-3.847884 -1.5338,-7.557967 -4.47993,-10.290903 -1.83587,-1.690369 -5.04728,-5.549292 -1.57849,-7.19733 2.53987,-1.508707 5.14938,-3.368639 8.33331,-3.535539 3.77543,-3.564666 8.92158,-5.236112 14.14116,-5.682099 4.08443,-0.766867 5.20106,-5.524256 8.90131,-7.197319 1.33121,-1.742314 2.87169,-1.865774 4.1035,-0.06315 3.20044,-0.0078 5.92202,-1.865412 8.39648,-3.724895 0.47339,-2.897248 3.13444,-4.388911 5.68163,-2.399119 2.91797,1.019828 4.44016,-1.599527 6.75807,-2.083496 2.4414,0.626467 4.16439,4.895173 7.07059,2.399088 0.96676,-2.370122 2.44803,-5.415194 5.7449,-3.788066 2.97907,0.86831 4.63058,3.966598 7.32301,5.113879 4.43785,1.656901 5.58722,-5.908444 9.72216,-3.661778 2.50436,1.77982 5.63214,0.533621 7.44954,-1.578354 2.93615,-2.280982 7.06774,-1.26548 9.7883,-4.22999 4.33785,-1.898037 9.0749,-1.840615 13.76309,-2.146553 3.21339,-3.14873 7.68763,-5.30162 12.05824,-6.565917 4.35368,-0.493285 9.27442,-1.750195 13.321,0.441935 4.11446,0.516897 8.59738,-2.103626 12.37513,0.631239 4.98995,0.96228 9.26761,4.002301 14.33099,4.987533 2.89201,1.833063 6.71918,0.06866 6.18683,-3.472372 0.31526,-2.567846 2.82991,-4.666388 5.30294,-2.841049 4.44277,0.675409 9.88312,2.102211 13.63665,-1.136407 1.95531,-1.40633 0.0609,-6.23527 3.53737,-6.502785 3.2052,0.226575 4.5111,4.612943 7.9529,4.482508 4.2622,0.744325 1.3643,-4.714424 2.8456,-6.798701 3.0347,-3.8970678 11.7793,-2.7038385 16.1538,-0.01981 3.3658,2.138573 5.3022,2.006646 8.4581,-2.3991194 1.6233,-0.5364899 5.7418,2.3987024 4.6702,-1.1995562 -1.1241,-0.9244632 -4.8485,-1.5951579 -0.6949,-4.6719558 3.8557,-2.59322405 10.0062,-2.49283625 16.1905,-2.55151215 -0.2676,-4.08643525 2.1201,-4.35746875 4.964,-7.77003555 3.8754,-4.7089629 10.1387,-7.0163329 16.419,-7.2929569 1.1173,2.938745 5.6559,4.299692 7.0398,2.205214 3.007,-2.553563 3.9764,1.940476 5.2059,3.4137595 3.1261,5.2265167 6.7486,4.0241791 9.9096,8.3337641 0.2302,3.6170596 4.5016,3.0153062 3.1,5.4926881 -4.0718,2.0291774 -1.7754,9.2975853 2.8413,8.7756873 4.0996,1.595061 6.6111,6.288162 11.5522,5.492667 4.7206,1.175829 10.2068,0.648117 14.5833,2.462211 0.4073,0.488393 1.0733,0.589244 0.8533,1.294295 0.2283,4.463149 -7.3697,2.96796 -8.4876,7.355115 -2.6659,4.503959 -7.22,7.424487 -12.561,6.692228 1.4311,4.089882 4.5028,8.235356 1.5103,12.563914 -0.4936,7.253794 -11.5339,1.520867 -12.8762,8.018077 -3.4032,2.080267 -9.8421,0.605922 -11.2361,4.987622 3.1861,5.480956 1.3505,10.916316 9.9039,14.015866 4.4405,4.177104 1.9803,6.28952 -3.7839,9.280796 -4.0691,2.610792 -5.4759,0.702492 -9.1679,3.541886 -4.0574,3.138733 -11.8798,-0.498542 -14.2797,6.537949 -1.3139,2.114802 -3.8756,4.026947 -3.701,6.398123 1.8404,2.15575 9.8669,-1.614643 7.1974,2.33597 -5.2413,3.26423 -1.2639,11.86261 -7.0682,14.45722 -3.2966,1.37622 -5.6148,5.5281 -9.6756,6.00871 -0.9746,3.28447 -2.1296,6.53879 -5.0025,8.4378 0.5925,2.89523 -0.4387,4.65145 -2.8082,6.00829 -1.3867,1.82879 -2.6664,4.74493 -5.3656,2.62219 -4.2293,0.32615 -5.796,4.75544 -5.3213,9.26292 -6.9074,-0.29759 -10.0451,3.57664 -14.4704,6.21697 -2.3955,3.07741 -2.7,7.27719 -5.9104,11.50733 -2.1648,3.86034 -5.0477,3.36837 -6.8794,6.18831 -0.072,3.69304 1.5601,5.4043 4.8104,8.51961 4.9236,3.60236 0.3801,9.65105 0.5525,16.54522 -0.5088,6.49949 0.2349,14.20862 -1.0091,19.88805 -4.5167,2.92324 -1.079,7.75654 -5.8025,6.91187 -4.3203,-0.36145 -5.6101,-8.75573 -12.69483,-1.6041 -3.7134,2.65009 -1.92165,7.48113 -6.68993,6.6875 -2.02648,-2.42168 -5.61126,-1.33363 -5.30265,1.95686 0.57419,4.39087 -3.97992,5.57583 -3.91774,9.97523 1.05351,4.55766 -0.86515,7.34567 -4.79298,10.2687 -1.76435,4.38049 -3.45069,4.2194 -4.11372,8.7677 -1.64629,7.10912 1.04893,11.30673 2.403,16.19294 1.21817,8.87469 -7.71031,8.13387 -5.36594,14.70974 2.35033,1.75694 2.92838,3.44383 5.09319,3.21601 3.18702,-0.33539 4.83574,-3.4463 6.64913,-3.15291 4.53449,0.40603 6.41827,5.30458 9.6599,0.38 2.92344,-3.68394 6.97688,-3.2559 8.58547,0.8841 4.8949,6.71268 10.3104,-2.16177 11.2362,3.21948 1.4505,4.52057 7.4098,2.87127 5.2386,9.53289 0.3083,4.93496 2.7462,3.75309 3.7713,6.17607 0.8831,2.08736 -0.9221,4.8668 1.343,8.30428 0.03,5.19338 -2.9246,5.84498 -1.194,9.81954 0.4005,4.65532 2.8134,9.26819 -0.7458,10.81629 -2.2879,1.83117 -6.3624,3.68568 -5.2002,5.23693 3.8109,2.04222 2.5995,3.66925 -1.2283,4.02316 -8.4036,3.07905 -7.253,-0.4946 -14.5393,-1.91744 -4.30688,-2.45218 -4.90896,-0.26962 -7.39537,1.31847 -1.42742,2.04111 -2.66358,3.32037 -5.23778,4.65137 -1.32024,0.93873 -11.94422,-3.05656 -9.02809,4.03592 1.65724,5.55049 -1.91104,7.13076 -6.37627,6.56539 -4.02243,1.33616 -1.40852,3.50401 0.88169,5.97373 -1.01581,5.38316 -1.21422,8.5395 -1.95086,13.90364 -0.26034,4.22195 -0.90673,6.073 -3.48135,10.02343 -1.79875,4.39254 -1.13718,4.87352 -3.543,10.6326 -11.24714,0.5378 -10.37882,-0.55577 -19.97411,-4.46176 -4.55541,-1.74072 -8.66989,-1.44496 -14.60515,-2.69365 -4.20799,-2.26856 -6.95389,-6.933 -12.48033,-8.72076 -2.58731,-0.6822 -8.72052,-4.10792 -6.81989,0.33562 -0.79002,3.42114 -3.78932,1.2401 -8.83555,6.1336 -3.76429,1.06734 -4.74812,1.22622 -7.60452,4.35593 -1.04976,1.44791 -0.78888,4.22428 -4.12499,1.20228 -2.8734,-2.70259 -1.21242,3.85067 -3.24601,4.76225 -2.28849,1.02584 -2.97966,-2.45626 -5.53146,-0.98322 -3.41531,4.02443 -2.10936,5.9926 -4.58614,8.65597 -2.78806,4.33586 -0.31908,5.70544 1.32588,8.27017 2.81403,2.63652 3.49749,4.49131 4.42359,8.67166 1.18865,2.54802 2.11834,5.5115 -0.0677,8.12223 -5.38653,4.5244 -7.19095,-3.96818 -13.47988,2.17076 -4.03357,2.59791 -6.29579,-1.5909 -7.41728,4.01669 0.70319,3.87164 0.12682,5.39945 -0.11079,11.42717 -0.90189,8.0362 3.62184,12.77482 -3.20486,17.94595 -2.92096,3.98686 -5.15355,4.79717 -7.89823,8.70809 0.41913,7.44838 4.60783,10.60433 4.90287,16.56918 -6.54594,8.3429 -18.35431,10.74247 -28.45629,10.06685 -4.20349,3.7286 -6.2554,2.57433 -10.54101,0.74465 -2.16493,3.27282 -7.0567,7.2293 -8.86071,2.78674 -1.91423,-3.17974 -8.41126,-1.67275 -9.72234,-4.79767 1.14526,-4.50023 0.6087,-9.76335 1.79463,-13.61124 4.98867,-4.68217 2.95505,-11.73001 -0.91811,-16.2946 -2.24053,1.51787 -4.1997,2.55779 -6.43303,6.67232 -1.59753,5.32975 -1.69063,6.28063 -7.95525,2.65123 -4.28142,-0.88767 -9.46042,-4.59872 -13.19473,-3.91394 0.14207,4.37142 3.97925,11.77099 -0.94717,14.4573 -2.84691,2.65295 -4.44734,-1.27851 -7.21914,-0.18478 -3.72167,3.68732 -7.81954,0.298 -12.50037,-0.55904 -4.81203,-3.65214 -10.11755,-7.71541 -15.34797,-10.71345 -2.67662,-5.14175 -9.51593,0.44431 -12.08765,-3.48834 -0.85957,-3.54733 -2.45398,-4.81348 -4.23591,0.6142 -1.82673,5.85566 -3.79205,12.9045 -14.74466,10.8154 -3.25325,-0.64514 -5.05996,-4.18809 -7.60391,-6.26965 -0.67481,-2.54004 -0.42071,-6.88089 -3.02987,-7.82827 -3.45411,-1.0413 -4.72149,0.89654 -5.43957,3.65911 l -13.74085,0.26309 c 0.0703,-1.95441 0.39735,-4.06817 0.32875,-6.06908 1.09817,-4.43327 -3.40158,-6.27853 -5.20905,-9.65914 0.44083,-4.01731 -1.44961,-5.90587 -1.7637,-9.91278 -0.83123,-1.6885 0.65156,-1.9593 -2.90418,-4.79822 -2.51148,-0.85375 -2.65765,-3.87256 -6.20334,-4.02413 -1.64719,1.26142 -1.54879,2.95452 -4.17874,2.62882 -3.44486,1.13236 -3.89812,-2.23212 -4.25879,-4.43474 0.28756,-1.85136 0.39448,-4.14125 -1.52158,-3.51387 -1.69759,1.82598 -6.37797,-1.41308 -9.83366,-3.65282 0.96178,-5.74235 4.76711,-8.59624 7.30828,-11.49946 1.26457,-2.053 0.32761,-3.53667 -1.51851,-4.95598 -5.02425,-0.31571 -7.68583,-2.30671 -11.36093,-6.1557 -3.86264,-3.30554 -4.90267,-3.88247 -8.71257,-8.33376 -1.85902,-1.82235 -5.10728,-2.49657 -2.54705,-6.10424 0.89406,-2.08679 1.71798,-3.05793 3.55721,-5.51251 2.54805,-0.47935 2.88147,1.54244 6.1502,1.72181 3.01501,-0.2387 4.52395,-0.67745 4.41044,-3.3073 0.81369,-1.43181 0.39249,-2.09968 -2.68229,-2.8033 -1.38819,-1.71415 -3.08433,-0.52264 -5.04958,-1.46292 -2.83514,0.0849 -6.16486,-0.35144 -8.50454,-1.79841 -1.73275,-1.02497 -2.86087,-1.28012 -4.48441,-1.75879 -1.35991,-1.26676 -3.93582,-2.93014 -5.08597,-4.00639 -1.94912,-1.26145 -4.68165,-1.78074 -6.34587,-2.36834 -2.13978,-1.17299 -4.37304,-2.53973 -5.17703,-5.05076 -2.64731,-2.82956 -5.27153,-4.72985 -8.46002,-7.70241 -1.90318,-1.5972 -2.91825,-0.15297 -4.73061,-2.85561 -0.94817,-2.33403 -2.9468,-5.6057 -4.86584,-6.74084 -1.9912,-3.16878 -2.95185,-6.34115 -5.68211,-8.83884 -1.4583,-1.85538 -0.59953,-2.75258 -3.75651,-5.17703 -3.18114,-0.58581 -5.25363,-1.39565 -9.0393,-3.92199 -1.69116,-2.13846 -2.86155,-3.94108 -2.86154,-3.94108 z"
       style="fill:#ffff00" />
    <path
       sodipodi:nodetypes="ccscsccccccccscccccccccccccccccccccccccccccccccccccccccccccccccccccccccccccccccccccc"
       inkscape:connector-curvature="0"
       id="skovorodinosub"
       d="m 518.90273,383.51492 c -4.55284,5.0427 -3.80979,1.56812 -9.9157,3.05536 -1.99767,2.41617 1.7778,3.16901 -1.00042,5.00405 -3.48031,2.29878 -4.18734,-2.41801 -6.88781,2.42093 -3.40689,1.23247 -9.19006,1.7397 -15.173,1.59578 -4.57688,-0.11009 -6.25821,-3.59197 -11.59605,-7.15162 -5.63761,-5.74249 -12.14967,-9.37726 -19.7611,-11.99556 -8.44897,-1.19721 -15.82418,-1.45871 -23.61232,-0.63135 -5.02703,-0.0463 -8.2002,-1.19807 -14.39467,-0.37881 -4.90292,-3.73212 -6.65675,-8.51842 -9.97526,-11.55362 -5.26275,5.42728 -14.43826,1.91708 -23.61231,-0.50507 0.34545,-4.91019 1.55592,-12.66794 6.31345,-15.84677 4.28909,-3.01056 7.39463,-5.0071 6.56599,-8.20749 -1.4082,-6.7655 -8.32245,-2.27271 -13.11386,-9.15704 -2.37762,-3.41619 -7.39201,-3.54014 -9.86711,-5.11137 -6.52135,-5.35316 -8.937,-8.52747 -11.55362,-11.99556 -3.53658,-6.00085 -12.38809,-6.3469 -12.87944,0.94702 -2.34732,5.30825 -4.69461,6.48196 -10.03839,6.9448 -5.21176,5.61584 -5.19167,8.24492 -8.27063,12.50064 0.51727,2.35746 1.63039,4.85943 0.10108,8.01038 2.83651,5.76431 3.16382,8.99862 -0.29048,9.60415 -4.62406,0.11784 -9.6865,-0.41185 -10.48034,-5.80837 -6.18837,-1.45011 -8.94468,-1.70213 -13.32139,2.84105 -4.04652,2.2088 -12.42235,0.25333 -10.03838,7.76555 1.08182,10.2605 -13.55924,10.19548 -15.15229,19.44544 -3.18511,5.36244 -8.78278,7.4607 -14.64721,5.05076 -1.52746,-2.75943 -0.37289,-5.59236 -5.17704,-7.57615 -14.48023,-1.97757 -20.55033,-5.28738 -29.04188,-9.84898 -4.52766,-3.34029 -7.24017,-3.05934 -7.07364,-14.02902 -6.16976,-1.34742 -1.66318,-4.21956 -5.67954,-5.63457 -4.33833,-3.00351 -2.50816,-6.4406 -6.3642,-2.11373 -4.91652,-0.36467 -3.94433,2.50529 -5.25256,3.75522 -2.87128,2.34805 -2.98767,4.7781 -4.0406,7.95495 -0.30209,2.3927 2.45912,4.59531 4.79823,5.55585 -1.29107,5.48802 5.06453,4.85004 2.14657,10.35406 0.65189,3.24703 -3.14313,3.97181 1.64149,9.09137 0.94732,2.56963 4.10177,4.17972 0.88388,7.70242 -3.91335,2.06389 -9.38762,2.04806 -8.20748,8.83883 0.99504,12.60717 7.62138,11.33457 12.08447,18.53054 5.27717,6.47468 4.21785,-4.32857 8.74992,-0.34779 1.81544,7.3949 5.9731,8.049 7.19734,13.63705 9.03696,4.84355 -1.3611,7.4958 5.3033,14.01587 1.13488,1.79826 1.67188,4.23211 2.90419,6.43972 -0.26599,4.82068 -0.0944,10.47356 -0.25254,15.5311 1.26638,2.20106 5.15857,2.89375 3.53553,5.68211 -1.89945,2.915 1.71021,5.6776 3.66181,7.57614 2.18961,1.42222 5.07391,2.76325 6.18718,5.05076 2.35827,8.86815 2.46603,7.96188 7.07107,0.37882 1.2251,-7.03684 7.99688,-1.30026 12.12183,-4.79823 3.51035,-6.01962 9.63574,-7.06905 14.26841,-2.27284 3.126,7.67654 4.03811,2.67791 18.94035,0.88387 14.86377,-0.94514 15.54183,-2.57329 22.34963,-3.28298 6.65109,-4.01925 11.92054,-10.06213 18.94036,-9.59646 6.10219,-2.48601 7.91222,-10.28581 14.89975,-8.33376 5.8585,-1.94672 9.97801,5.30215 17.29886,-2.0203 6.84932,-0.94969 9.5394,-2.42223 14.26841,-1.2627 5.65764,-0.42673 6.51274,6.85574 12.12183,6.69227 6.50793,1.75613 13.86098,-0.46659 19.5717,3.91434 3.97425,2.05645 6.04924,5.0246 10.69733,7.70996 3.2265,2.79272 6.60304,2.79814 11.16889,-0.23207 5.31019,-1.23796 7.41664,-1.72507 14.02925,5.98185 1.53124,2.49247 2.12254,2.85407 5.26786,7.14285 4.05001,4.34119 3.97534,4.50509 10.78032,7.94644 5.82783,1.21584 8.61329,-0.71943 11.63039,-1.42858 -0.94404,-4.02226 -4.35585,-11.40591 -3.83929,-14.91071 -1.74773,-4.12936 -1.33203,-7.22254 -3.75,-12.85715 -1.10654,-2.57429 -2.23732,-6.63124 -3.66071,-8.88392 -3.87872,-1.07499 -5.0859,-0.9281 -6.96428,-4.95536 -1.48632,-5.36908 -0.79471,-5.02254 1.24999,-8.97321 2.57112,-5.61456 3.42858,-5.9538 5.625,-3.12501 2.31883,3.49295 8.19039,5.32765 9.82144,8.79464 2.68641,3.89252 5.86995,5.08878 11.02678,2.50001 3.58992,-0.87848 3.67072,-1.36402 9.73214,-3.57143 4.19109,-1.18679 7.08117,-3.00625 10.44643,-0.58036 1.108,1.51271 1.6929,2.11124 5.3125,3.52679 -0.29604,-2.68421 -1.34813,-5.27902 -1.875,-9.01786 0.22551,-4.90421 -0.80852,-10.37593 1.11607,-15.58035 -0.24449,-3.83277 0.63028,-6.72592 3.88393,-8.88394 2.80514,-1.85565 5.31079,-4.77577 4.95536,-12.05357 0.13852,-4.20575 -1.00229,-4.83281 1.42857,-7.54464 1.0546,-2.40731 2.63605,-6.77644 -1.25,-5.22321 -4.12666,1.89404 -2.51571,-4.61259 -5.58036,-1.10287 -1.33809,1.08089 -1.68749,1.31621 -4.64285,-0.99535 -1.21808,-0.66527 -2.50008,-0.39645 -3.86513,-0.99401 z"
       style="fill:#00cfcf"
       class="subregion" />
    <path
       style="fill:#9f9fcf"
       class="subregion"
       d="m 962.85297,406.90891 c 2.40582,-5.75908 1.74425,-6.24006 3.543,-10.6326 2.57462,-3.95043 3.22101,-5.80148 3.48135,-10.02343 0.73664,-5.36414 0.93505,-8.52048 1.95086,-13.90364 -2.29021,-2.46972 -4.90412,-4.63757 -0.88169,-5.97373 4.46523,0.56537 8.03351,-1.0149 6.37627,-6.56539 -2.91613,-7.09248 7.70785,-3.09719 9.02809,-4.03592 2.5742,-1.331 3.81036,-2.61026 5.23778,-4.65137 2.48641,-1.58809 3.08849,-3.77065 7.39537,-1.31847 7.2863,1.42284 6.1357,4.99649 14.5393,1.91744 3.8278,-0.35391 5.0392,-1.98094 1.2283,-4.02316 -1.1622,-1.55125 2.9123,-3.40576 5.2002,-5.23693 3.5592,-1.5481 1.1463,-6.16097 0.7458,-10.81629 -1.7306,-3.97456 1.224,-4.62616 1.194,-9.81954 -2.2651,-3.43748 -0.4599,-6.21692 -1.343,-8.30428 -1.0251,-2.42298 -3.463,-1.24111 -3.7713,-6.17607 l 0.1619,-3.96175 c 5.0577,-0.14915 5.8038,-6.06698 11.9011,-7.59147 9.5273,-2.92381 21.4201,-0.50515 28.4106,-1.4521 5.697,0.98494 11.1593,2.20946 11.8061,8.7757 -0.5435,4.43838 0.359,9.36427 5.114,11.11168 3.241,1.51595 0.087,5.9339 3.788,9.15451 1.0543,5.74685 -3.4812,6.76142 2.5885,12.2481 0.2369,2.77199 3.3493,6.03851 4.4826,10.03839 0.4454,6.37159 7.775,10.65142 4.7982,17.80394 -1.0144,2.90755 -6.0272,6.35131 -2.9042,8.9651 5.4511,2.80102 4.2117,-2.06364 11.3011,-2.65164 3.5233,-0.56527 6.9485,-3.15556 12.5007,-5.36644 5.1647,-3.10787 10.2727,-5.89221 10.7959,1.32582 -0.2838,7.28712 1.0546,5.92996 4.8614,7.51301 3.0908,2.47476 3.7385,1.15066 5.7453,-1.45209 2.8129,-1.16265 3.8371,5.24571 6.9448,1.89403 1.4944,-5.22194 -1.8667,-18.18748 6.4397,-16.03617 4.5457,0.57672 2.6693,0.24918 6.4397,-1.13642 6.361,-1.55534 0.5929,-7.3042 11.2379,-5.05076 6.4776,0.75272 9.857,-0.37259 16.9201,-1.13642 3.179,-0.42528 3.3983,-1.69077 5.7366,-4.245 3.9931,-4.36183 8.1052,0.35339 11.8148,-2.06846 3.2184,-4.5888 6.0036,-4.01949 10.7329,-3.53553 4.4197,-1.41544 1.0876,-5.45101 0.3788,-8.08122 0.1555,-6.71803 9.1716,-2.49789 12.69,-5.80838 2.7293,-2.28775 8.2524,-0.0116 8.7757,-5.3033 -0.4219,-2.31466 -2.0327,-2.03986 -1.0733,-5.11389 2.0211,-2.64312 -1.9189,-7.46856 2.0204,-13.51079 3.8987,-3.67208 5.7433,-6.4089 10.6697,-8.01809 3.0804,-2.34803 2.24,-9.81588 8.3337,-7.95495 4.1799,0.0211 5.2359,-5.31252 8.7126,-7.19734 3.5792,-3.74812 7.6615,1.85773 10.9854,3.283 2.7394,1.6825 5.5217,3.16461 7.8287,-0.25254 2.4859,-3.56861 2.3268,3.51797 5.177,1.01015 4.419,-4.29567 10.2088,2.72172 14.7735,-0.88388 3.4583,-1.21868 9.2075,-2.88271 9.3439,-6.43973 1.4327,-0.5257 -2.6972,-6.82058 4.672,-4.92449 1.4698,2.47466 4.7903,0.56954 3.283,-2.39911 -1.3727,-2.35059 3.8657,-8.96923 6.3134,-7.63928 3.1952,-0.0512 2.5875,-3.85356 5.6821,-5.87151 1.9805,-1.8777 5.9112,0.75706 4.9876,-3.59867 -1.9834,-5.30246 8.7243,-9.42601 12.6901,-5.74524 3.8532,2.84057 2.7871,4.88211 7.7024,4.86136 7.655,-1.33591 4.2574,8.0234 11.238,5.61897 5.0406,-2.00143 3.1372,5.82876 7.8286,5.17703 3.9762,-2.2796 13.2332,5.88448 4.4825,6.62913 -3.8136,0.39207 -5.9268,-1.08609 -5.4926,5.74524 0.6905,9.45308 8.2475,2.17715 10.0384,7.89182 1.8484,4.17304 3.1891,3.909 5.2401,7.63928 1.1476,3.38535 2.2029,5.20105 -3.0304,8.83883 -2.8983,0.66498 -0.7047,2.71417 -0.6852,5.20909 0.02,2.59707 -1.1401,4.55894 3.0843,6.15513 2.7521,2.82031 2.178,8.63768 -1.7361,7.61538 -2.1991,-0.57437 -3.1878,2.5977 -3.504,4.44331 -0.7219,6.23086 1.2485,3.85961 -2.0835,12.69004 -1.9614,3.66389 -3.4752,6.68257 -4.4194,11.36422 -2.0313,4.66496 5.831,-0.2479 3.1567,6.06091 -4.3544,8.57329 10.2221,9.93241 8.5232,14.39467 -0.6862,3.60862 -2.2091,7.19488 2.3359,6.43973 3.668,-1.32257 4.8745,-4.96607 7.0678,-0.69313 0.8499,2.16796 3.1626,4.10065 3.0599,7.38066 1.9216,5.42841 -1.4113,4.79435 -2.4253,4.67668 -4.199,1.09856 -4.3571,-2.19014 -3.7881,4.16689 0.8656,4.33353 -2.9401,4.25677 -1.7676,12.4375 0.5019,3.15784 1.8465,5.13125 4.1589,4.98498 2.6399,-0.16699 3.4007,5.00819 0.8287,8.08386 -2.4389,2.65833 -5.696,7.68008 -9.4071,2.77793 -3.1647,-5.09897 -12.6409,-1.98741 -17.6777,0.88388 -4.2929,3.2985 -14.3849,-5.47283 -15.6573,-1.89404 -1.4812,7.44699 -8.4476,4.33243 -14.2684,1.38896 -5.1578,-0.8837 -9.1648,8.43482 -13.2583,3.66181 -1.4927,-5.75301 -6.8652,-3.34915 -13.8896,-2.90419 -7.6502,0.44382 -12.1622,-3.16011 -21.4657,-2.84106 -3.6374,-0.0154 -13.8717,-5.11886 -18.2459,-3.72493 -3.2728,1.57956 -7.2108,2.38409 -5.2402,7.70241 0.4289,3.76396 3.0189,11.52595 5.227,12.05123 2.6903,0.64 5.8597,4.34279 5.1271,6.57346 -0.1882,6.78174 -7.5059,6.20835 -0.3788,11.36421 3.5951,1.89667 6.2898,3.25671 7.4498,7.70242 1.7484,4.08118 4.1863,6.5579 6.3287,6.54271 4.631,-0.0328 4.5625,2.63293 5.3513,3.11687 1.283,0.83894 6.5633,6.07861 -2.0835,9.40704 -2.5004,1.18639 -2.5287,10.15407 -10.4803,9.40705 -4.1706,0.70444 -1.6626,5.19692 -5.9742,3.9954 -3.9763,-1.10805 -3.154,4.53657 -5.8951,3.13881 -3.6842,-1.31795 -2.7075,0.67938 -8.1444,1.45209 -5.4142,1.06727 -0.8774,5.48477 -8.0181,3.6618 -7.4867,-1.98481 -7.9235,-2.15206 -8.46,3.15673 -5.0199,11.59518 -8.8877,2.73889 -12.7532,10.79601 -3.439,8.71981 -4.8612,11.38634 -4.7982,13.57392 0.3814,7.82495 1.0536,8.79542 -2.9042,12.12183 -3.4932,3.74294 -5.0914,5.07356 -1.7677,7.89182 1.5567,2.72452 -1.409,8.79123 -4.7638,8.83024 -3.4535,0.0402 -4.7575,1.85655 -5.2747,4.17547 -0.2443,1.95754 -1.2098,7.73944 -5.3033,1.95717 -1.4194,-2.91009 -3.7959,-1.87637 -4.8613,0.31568 -2.2814,2.81593 -6.2329,3.00758 -5.8056,6.15858 0.1592,2.58734 -0.067,4.34769 -3.5383,1.98577 -1.7311,-0.61327 -2.9386,-1.19294 -4.672,1.95717 -3.3522,3.36936 -2.7731,9.54894 -8.0812,8.7757 -6.6189,-1.49078 -5.3793,4.5903 -11.0486,9.40704 -6.5295,5.84851 -11.7344,4.19521 -12.6268,7.07107 -1.2051,4.21531 -3.3863,1.33345 -12.2482,2.39911 -9.6206,-0.74936 -5.5827,2.97652 -9.6595,6.37659 -3.5044,0.88822 -6.6693,-0.27548 -9.5333,1.95718 -3.0494,1.87676 -2.6559,7.2155 -7.4507,2.34354 -3.0407,-3.3717 -4.0516,-2.47954 -5.1131,-0.76518 -2.2365,1.39565 -7.5215,0.82013 -13.5108,-2.39912 -3.4658,-6.58619 -8.7652,-2.96581 -15.8468,-15.15229 -3.5338,-5.1385 -5.4628,-9.05282 -9.4701,-13.25825 -4.756,-4.10207 7.6055,-5.3098 4.7351,-9.21764 -0.3474,-4.85292 -3.9163,-4.42619 -8.4601,-5.68211 -2.8144,-3.12744 -1.6746,-2.00035 -2.841,-9.97526 -3.024,-10.30281 -5.6399,-5.74504 -11.8062,-4.48255 -3.7084,1.60354 -7.2959,3.95168 -8.6195,3.95624 -3.583,0.0123 -2.112,1.21208 -2.8079,3.24111 -2.7821,2.75744 -3.318,12.33237 -11.6798,6.88166 -4.3399,-1.77762 -4.8074,-2.18382 -10.3541,-4.23002 -6.5909,-2.57144 -1.4727,-4.67863 -11.6799,-9.34391 -4.8323,-3.19609 -5.6507,-3.84296 -13.06883,-7.1342 -5.03277,-3.15123 -7.15659,-3.88134 -19.1929,-4.98763 -3.75515,-0.0172 -4.77513,-1.19519 -2.37714,-2.25767 3.57914,-1.58582 2.38331,-3.96006 1.80893,-6.45489 -0.72689,-5.95413 -2.71098,-8.7894 0.88388,-9.97527 11.08698,-3.65262 2.24059,-4.7675 5.05077,-9.78584 0.40032,-5.7213 -4.05539,-12.11852 -7.26047,-14.39468 -2.36393,-2.67831 -2.66947,-4.36013 -3.15673,-9.91212 0.37381,-4.22231 3.54615,-5.68845 3.72494,-10.54347 -0.1422,-3.97732 -2.78104,-5.25331 3.15673,-10.35407 4.48239,-5.6961 2.71589,-6.27705 0.49277,-16.03432 -1.07329,-3.92413 -7.8886,-8.70224 -7.81638,-10.86098 -1.65168,-5.06355 -3.52954,-2.96352 -3.78807,-11.42735 -0.36605,-3.84286 -4.92354,-16.24401 -6.45153,-17.10964 z"
       id="selemdzhasub"
       inkscape:connector-curvature="0"
       sodipodi:nodetypes="ccccccccccccccscccccccccccccccccccccscccccccccccccccccccccccccccccscscccccccccccsccccccccccscccscccsccccccccscccccccccccccccccccccsccccccsccccccccccc" />
    <path
       sodipodi:nodetypes="cccccccccccccccccccccccccccccccccccccccccccccccccccccccccccccccccccccccccccccccccccccccccccccccccccccccccc"
       inkscape:connector-curvature="0"
       id="magdagachisub"
       d="m 561.01347,345.12913 c 1.54989,4.05356 -1.71663,3.50469 -0.75761,8.08122 -1.69024,7.90865 -5.5069,15.40398 -15.5311,13.76333 -5.32994,0.99095 -6.30051,4.92145 -15.15229,8.71256 l -10.66974,7.82868 c 1.36505,0.59756 2.64705,0.32874 3.86513,0.99401 2.95536,2.31156 3.30476,2.07624 4.64285,0.99535 3.06465,-3.50972 1.4537,2.99691 5.58036,1.10287 3.88605,-1.55323 2.3046,2.8159 1.25,5.22321 -2.43086,2.71183 -1.29005,3.33889 -1.42857,7.54464 0.35543,7.2778 -2.15022,10.19792 -4.95536,12.05357 -3.25365,2.15802 -4.12842,5.05117 -3.88393,8.88394 -1.92459,5.20442 -0.89056,10.67614 -1.11607,15.58035 0.52687,3.73884 1.57896,6.33365 1.875,9.01786 -3.6196,-1.41555 -4.2045,-2.01408 -5.3125,-3.52679 -3.36526,-2.42589 -6.25534,-0.60643 -10.44643,0.58036 -6.06142,2.20741 -6.14222,2.69295 -9.73214,3.57143 -5.15683,2.58877 -8.34037,1.39251 -11.02678,-2.50001 -1.63105,-3.46699 -7.50261,-5.30169 -9.82144,-8.79464 -2.19642,-2.82879 -3.05388,-2.48955 -5.625,3.12501 -2.0447,3.95067 -2.73631,3.60413 -1.24999,8.97321 1.87838,4.02726 3.08556,3.88037 6.96428,4.95536 1.42339,2.25268 2.55417,6.30963 3.66071,8.88392 2.41797,5.63461 2.00227,8.72779 3.75,12.85715 -0.51656,3.5048 2.89525,10.88845 3.83929,14.91071 2.98211,-0.93812 4.60782,-0.52211 8.39294,0.62506 2.64097,2.20106 4.07954,3.98474 5.89299,6.07163 3.41881,2.89628 4.52413,-1.64583 7.50022,-4.018 3.79849,-3.31123 8.90305,-4.55426 13.75033,-5.35749 4.79897,-1.80141 2.90026,-3.3259 10.44599,-4.6431 8.01945,1.27047 10.27904,2.85379 15.00081,5.26813 4.18674,1.5426 4.34562,2.70728 7.76681,2.94666 3.39594,1.28272 6.90694,1.96398 10.26807,3.39304 2.20843,0.0713 5.24618,1.66415 4.64293,5.80375 2.2197,-5.64884 8.09842,-4.8463 10.62508,-2.49995 4.13697,2.56764 4.75146,9.06703 11.07179,9.37535 3.79521,0.87991 4.08449,2.54178 5.44662,6.69671 0.84648,5.15868 -1.50428,5.18154 -5.0904,9.9098 7.17932,-6.05758 9.80311,-4.75772 14.01795,-3.48217 3.23813,2.61311 0.20964,4.98075 6.52025,10.79044 3.03768,4.61361 4.42039,3.39319 7.76566,0.37054 3.13619,-1.40166 3.67271,0.0244 7.41083,1.87496 3.66759,1.40849 4.64857,2.81569 6.33951,6.60736 2.4258,5.15562 0.41276,2.91849 -2.58986,5.35659 -4.58564,3.12864 1.06252,1.44312 0.17857,7.32157 -0.68348,4.18824 0.9942,6.33203 -6.25017,8.30376 -3.30311,-2.10509 -1.71782,4.78689 0.88375,1.0205 5.90386,-2.34458 8.29674,-0.12584 12.95588,2.9977 9.47752,4.05608 6.26363,4.43133 8.4822,7.58875 -1.37422,7.37198 2.4259,0.4384 9.82151,9.018 2.62085,3.69562 6.18876,5.56647 7.32172,11.51816 0.0731,2.36919 0.7793,4.17089 0.89238,6.33876 3.40364,-3.7073 6.42271,-7.63479 11.0715,-9.6431 3.80817,-4.24552 6.44534,-8.00332 10.89287,-12.23217 6.24346,-6.62814 12.68919,-13.30003 16.42844,-19.37485 4.16508,-4.62599 6.0342,-6.1526 9.99999,-9.37503 7.60591,-5.19384 9.56656,-2.45051 13.21428,-0.26779 7.59335,2.03558 6.82942,0.47852 10.00031,0.35715 4.58875,-5.07901 8.56033,-1.1433 10.00012,0.44655 2.78907,1.75459 3.8978,0.10885 5.4465,-1.16072 8.17826,-3.10895 14.26261,2.20842 19.10734,-5.35729 6.12287,-6.58664 2.01246,-10.13383 1.51784,-14.10731 -4.51448,-3.04144 -5.35118,-6.67807 -8.92961,-7.41085 -6.71561,0.0671 -6.87186,-8.52604 -2.49991,-9.55366 3.5376,-2.9849 0.22131,-6.45797 -1.60699,-9.28537 l -2.77391,-0.20457 c -3.72167,3.68732 -7.81954,0.298 -12.50037,-0.55904 -4.81203,-3.65214 -10.11755,-7.71541 -15.34797,-10.71345 -2.67662,-5.14175 -9.51593,0.44431 -12.08765,-3.48834 -0.85957,-3.54733 -2.45398,-4.81348 -4.23591,0.6142 -1.82673,5.85566 -3.79205,12.9045 -14.74466,10.8154 -3.25325,-0.64514 -5.05996,-4.18809 -7.60391,-6.26965 -0.67481,-2.54004 -0.42071,-6.88089 -3.02987,-7.82827 -3.45411,-1.0413 -4.72149,0.89654 -5.43957,3.65911 l -13.74085,0.26309 c 0.0703,-1.95441 0.39735,-4.06817 0.32875,-6.06908 1.09817,-4.43327 -3.40158,-6.27853 -5.20905,-9.65914 0.44083,-4.01731 -1.44961,-5.90587 -1.7637,-9.91278 -0.83123,-1.6885 0.65156,-1.9593 -2.90418,-4.79822 -2.51148,-0.85375 -2.65765,-3.87256 -6.20334,-4.02413 -1.64719,1.26142 -1.54879,2.95452 -4.17874,2.62882 -3.44486,1.13236 -3.89812,-2.23212 -4.25879,-4.43474 0.28756,-1.85136 0.39448,-4.14125 -1.52158,-3.51387 -1.69759,1.82598 -6.37797,-1.41308 -9.83366,-3.65282 0.96178,-5.74235 4.76711,-8.59624 7.30828,-11.49946 1.26457,-2.053 0.32761,-3.53667 -1.51851,-4.95598 -5.02425,-0.31571 -7.68583,-2.30671 -11.36093,-6.1557 -3.86264,-3.30554 -4.90267,-3.88247 -8.71257,-8.33376 -1.85902,-1.82235 -5.10728,-2.49657 -2.54705,-6.10424 0.89406,-2.08679 1.71798,-3.05793 3.55721,-5.51251 2.54805,-0.47935 2.88147,1.54244 6.1502,1.72181 3.01501,-0.2387 4.52395,-0.67745 4.41044,-3.3073 0.81369,-1.43181 0.39249,-2.09968 -2.68229,-2.8033 -1.38819,-1.71415 -3.08433,-0.52264 -5.04958,-1.46292 -2.83514,0.0849 -6.16486,-0.35144 -8.50454,-1.79841 -1.73275,-1.02497 -2.86087,-1.28012 -4.48441,-1.75879 -1.35991,-1.26676 -3.93582,-2.93014 -5.08597,-4.00639 -1.94912,-1.26145 -4.68165,-1.78074 -6.34587,-2.36834 -2.13978,-1.17299 -4.37304,-2.53973 -5.17703,-5.05076 -2.64731,-2.82956 -5.27153,-4.72985 -8.46002,-7.70241 -1.90318,-1.5972 -2.91825,-0.15297 -4.73061,-2.85561 -0.94817,-2.33403 -2.9468,-5.6057 -4.86584,-6.74084 -1.9912,-3.16878 -2.95185,-6.34115 -5.68211,-8.83884 -1.4583,-1.85538 -0.59953,-2.75258 -3.75651,-5.17703 -3.18114,-0.58581 -5.25363,-1.39565 -9.0393,-3.92199 z"
       style="fill:#00afcf"
       class="subregion" />
    <path
       style="fill:#ff007f"
       class="subregion"
       d="m 962.85297,406.90891 c -11.24714,0.5378 -10.37882,-0.55577 -19.97411,-4.46176 -4.55541,-1.74072 -8.66989,-1.44496 -14.60515,-2.69365 -4.20799,-2.26856 -6.95389,-6.933 -12.48033,-8.72076 -2.58731,-0.6822 -8.72052,-4.10792 -6.81989,0.33562 -0.79002,3.42114 -3.78932,1.2401 -8.83555,6.1336 -3.76429,1.06734 -4.74812,1.22622 -7.60452,4.35593 -1.04976,1.44791 -0.78888,4.22428 -4.12499,1.20228 -2.8734,-2.70259 -1.21242,3.85067 -3.24601,4.76225 -2.28849,1.02584 -2.97966,-2.45626 -5.53146,-0.98322 -3.41531,4.02443 -2.10936,5.9926 -4.58614,8.65597 -2.78806,4.33586 -0.31908,5.70544 1.32588,8.27017 2.81403,2.63652 3.49749,4.49131 4.42359,8.67166 1.18865,2.54802 2.11834,5.5115 -0.0677,8.12223 -5.38653,4.5244 -7.19095,-3.96818 -13.47988,2.17076 -4.03357,2.59791 -6.29579,-1.5909 -7.41728,4.01669 0.70319,3.87164 0.12682,5.39945 -0.11079,11.42717 -0.90189,8.0362 3.62184,12.77482 -3.20486,17.94595 -2.92096,3.98686 -5.15355,4.79717 -7.89823,8.70809 0.41913,7.44838 4.60783,10.60433 4.90287,16.56918 l -8.07198,6.81721 c 9.05722,20.33068 11.07384,17.45938 12.41071,22.67858 1.3849,5.07059 8.67581,-1.83431 8.66071,6.25 -1.03771,6.64175 -1.21868,6.06142 -6.07143,9.01786 -5.47201,4.70118 3.64072,8.20926 2.14286,13.75 -0.89765,7.31825 -4.69139,8.79524 0.53571,16.25 3.60657,4.644 3.52845,9.78157 0,16.42856 -1.54229,6.86957 0.57707,8.93429 0.17858,14.64287 -5.48569,8.49323 0.741,7.37065 7.76785,17.58928 2.47866,13.79562 3.98878,11.22594 8.36287,14.38477 4.8699,5.07671 3.10547,13.99508 8.15499,15.7938 5.5301,3.21934 7.8874,5.25059 3.04719,9.98852 -2.80655,6.8645 -3.3008,10.11304 -9.56505,12.86862 -7.30377,4.40564 -8.69267,3.87089 -8.92857,9.20449 0.8708,7.12815 -7.38546,7.30433 -10.35714,11.15265 -3.41738,3.0513 -1.84224,9.99123 -0.35715,10.35715 5.61651,1.12017 8.80896,1.49194 13.30358,2.23214 4.88311,4.4991 4.44375,2.24517 7.30797,-2.5948 0.80426,-1.35903 7.64962,-1.07797 11.44202,-0.26235 5.3413,3.04279 6.51423,-5.72403 2.58929,-8.92856 -3.65191,-2.92548 -1.65748,-5.02522 1.85946,-3.55843 3.18349,1.32772 4.17874,-4.71107 7.42625,-5.10229 10.02681,0.85264 8.19427,3.67793 8.82278,7.64331 -0.47599,9.05028 15.19969,6.44938 23.2308,5.57098 3.81318,-0.43305 8.49894,-2.76121 9.21239,3.83662 0.69657,6.44167 6.51504,-4.39118 13.55546,8.12766 8.88432,7.16539 15.01457,16.75992 19.82143,12.85714 7.91448,-6.09256 5.14011,-6.05687 9.19643,-9.99999 4.11146,-3.90525 5.25938,-9.0688 8.8986,-8.63336 2.63217,0.31495 5.56787,-1.75141 7.52997,-5.3845 4.9515,-5.98949 -1.2751,-15.35857 3.75,-21.07143 4.5964,-7.29264 12.5215,-6.64628 17.4108,-6.25 5.2247,1.84145 10.1374,1.28047 12.784,-2.01591 3.3934,-4.22656 9.0413,-4.60907 13.823,-3.69837 3.7953,1.60391 3.9588,-0.64506 6.7858,-2.58929 5.2387,-0.22841 17.565,-1.20815 22.8571,-3.39286 6.9399,-1.11513 10.0211,-2.58907 15.7143,-1.78571 7.6306,0.94917 0.557,-7.29243 5.3571,-7.5 4.6014,-2.56893 2.6569,-2.22782 5.2679,-4.91072 4.169,-4.74463 12.773,1.58882 16.6964,5.08929 2.8409,1.72698 6.8977,6.57806 7.2322,0.80357 1.9702,-7.12174 7.0343,-14.61546 11.5179,-12.85714 3.389,3.21327 6.7388,5.84299 10.8928,3.30357 2.4332,-6.40153 -1.6803,-7.24328 -2.6786,-13.03572 C 1149.9346,624.50716 1145,621.51785 1145,621.51785 l -9.7148,-17.25021 c 0,0 -6.6693,-0.27548 -9.5333,1.95718 -3.0494,1.87676 -2.6559,7.2155 -7.4507,2.34354 -3.0407,-3.3717 -4.0516,-2.47954 -5.1131,-0.76518 -2.2365,1.39565 -7.5215,0.82013 -13.5108,-2.39912 -3.4658,-6.58619 -8.7652,-2.96581 -15.8468,-15.15229 -3.5338,-5.1385 -5.4628,-9.05282 -9.4701,-13.25825 -4.756,-4.10207 7.6055,-5.3098 4.7351,-9.21764 -0.3474,-4.85292 -3.9163,-4.42619 -8.4601,-5.68211 -2.8144,-3.12744 -1.6746,-2.00035 -2.841,-9.97526 -3.024,-10.30281 -5.6399,-5.74504 -11.8062,-4.48255 -3.7084,1.60354 -7.2959,3.95168 -8.6195,3.95624 -3.583,0.0123 -2.112,1.21208 -2.8079,3.24111 -2.7821,2.75744 -3.318,12.33237 -11.6798,6.88166 -4.3399,-1.77762 -4.8074,-2.18382 -10.3541,-4.23002 -6.5909,-2.57144 -1.4727,-4.67863 -11.6799,-9.34391 -4.8323,-3.19609 -5.6507,-3.84296 -13.06883,-7.1342 -5.03277,-3.15123 -7.15659,-3.88134 -19.1929,-4.98763 -3.75515,-0.0172 -4.77513,-1.19519 -2.37714,-2.25767 3.57914,-1.58582 2.38331,-3.96006 1.80893,-6.45489 -0.72689,-5.95413 -2.71098,-8.7894 0.88388,-9.97527 11.08698,-3.65262 2.24059,-4.7675 5.05077,-9.78584 0.40032,-5.7213 -4.05539,-12.11852 -7.26047,-14.39468 -2.36393,-2.67831 -2.66947,-4.36013 -3.15673,-9.91212 0.37381,-4.22231 3.54615,-5.68845 3.72494,-10.54347 -0.1422,-3.97732 -2.78104,-5.25331 3.15673,-10.35407 4.48239,-5.6961 2.71589,-6.27705 0.49277,-16.03432 -1.07329,-3.92413 -7.8886,-8.70224 -7.81638,-10.86098 -1.65168,-5.06355 -3.52954,-2.96352 -3.78807,-11.42735 -0.9898,-6.59607 -2.78316,-10.24571 -6.45153,-17.10964 z"
       id="mazanovosub"
       inkscape:connector-curvature="0"
       sodipodi:nodetypes="ccccccccsccccccccccccccccccccccccccccsccscccscccscccscccccccccccccccccccccccsccccccsccccccccccc" />
    <path
       sodipodi:nodetypes="ccccccccccccccccccccccccccccccccccccccccccccccccccccccccccccsccc"
       inkscape:connector-curvature="0"
       id="shimanovsksub"
       d="m 863.30358,607.23215 c 0.39849,-5.70858 -1.72087,-7.7733 -0.17858,-14.64287 3.52845,-6.64699 3.60657,-11.78456 0,-16.42856 -5.2271,-7.45476 -1.43336,-8.93175 -0.53571,-16.25 1.49786,-5.54074 -7.61487,-9.04882 -2.14286,-13.75 4.85275,-2.95644 5.03372,-2.37611 6.07143,-9.01786 0.0151,-8.08431 -7.27581,-1.17941 -8.66071,-6.25 -1.33687,-5.2192 -3.35349,-2.3479 -12.41071,-22.67858 -7.11044,3.16665 -12.70566,3.80792 -20.38431,3.24964 -4.20349,3.7286 -6.2554,2.57433 -10.54101,0.74465 -2.16493,3.27282 -7.0567,7.2293 -8.86071,2.78674 -1.91423,-3.17974 -8.41126,-1.67275 -9.72234,-4.79767 1.14526,-4.50023 0.6087,-9.76335 1.79463,-13.61124 4.98867,-4.68217 2.95505,-11.73001 -0.91811,-16.2946 -2.24053,1.51787 -4.1997,2.55779 -6.43303,6.67232 -1.59753,5.32975 -1.69063,6.28063 -7.95525,2.65123 -4.28142,-0.88767 -9.46042,-4.59872 -13.19473,-3.91394 0.14207,4.37142 3.97925,11.77099 -0.94717,14.4573 -2.84691,2.65295 -4.44523,0.0198 -4.44523,0.0198 1.8283,2.8274 5.14459,6.30047 1.60699,9.28537 -4.37195,1.02762 -4.2157,9.62076 2.49991,9.55366 3.57843,0.73278 4.41513,4.36941 8.92961,7.41085 0.49462,3.97348 4.60503,7.52067 -1.51784,14.10731 -4.84473,7.56571 -10.92908,2.24834 -19.10734,5.35729 -1.5487,1.26957 -2.65743,2.91531 -5.4465,1.16072 -1.43979,-1.58985 -5.41137,-5.52556 -10.00012,-0.44655 -3.17089,0.12137 -2.40696,1.67843 -10.00031,-0.35715 -3.64772,-2.18272 -5.60837,-4.92605 -13.21428,0.26779 -3.96579,3.22243 -5.83491,4.74904 -9.99999,9.37503 -3.73925,6.07482 -10.18498,12.74671 -16.42844,19.37485 -4.44753,4.22885 -7.0847,7.98665 -10.89287,12.23217 -4.64879,2.00831 -7.66786,5.9358 -11.0715,9.6431 4.15524,-0.23479 4.62337,-1.37019 6.69636,1.24992 2.71036,2.71115 2.43794,4.56581 2.23214,9.19642 0.30736,3.10372 -4.09012,2.93922 -6.875,4.19643 -1.72254,1.58757 -2.60433,2.92876 2.08086,2.50001 4.17347,0.10072 7.27262,0.85727 10.32985,2.32142 6.37377,2.45261 11.28268,5.1238 10.35715,9.01785 -0.24506,6.57708 -0.054,16.84402 -4.73214,18.21429 -4.7508,0.7213 1.32236,3.14375 2.14285,6.16072 3.69168,4.46026 8.83481,7.48822 10.26786,14.73214 7.39365,6.40661 8.31096,11.71832 12.05357,11.42857 4.11217,-0.08 8.8851,7.31659 7.85715,11.78571 0.27827,4.52256 1.43175,6.00073 0.80356,9.28572 -4.1815,2.72677 -0.0793,3.12155 3.83929,3.48214 7.29613,0.32551 9.32596,4.10353 9.10714,10.53572 -1.47686,5.92275 -8.36196,11.40648 2.05357,8.66072 2.83591,-0.69554 6.59632,2.73482 8.30358,6.33928 2.07609,4.85372 6.29578,3.99611 7.85714,9.23529 1.11062,0.4897 3.49289,-1.90126 5.17857,-2.71743 4.17765,-1.19111 0.56483,-3.88346 -0.35714,-6.51786 -3.05432,-4.9537 -4.9116,-8.37978 -7.14286,-13.03571 -0.36548,-5.3172 -1.99936,-8.08248 0.26786,-13.48215 1.94501,-5.14675 1.67072,-9.98669 6.42857,-13.75 5.83786,-7.92883 7.45006,-11.08207 13.03572,-17.94643 4.39124,-6.79753 7.68507,-4.40543 16.51785,-7.23214 6.10306,-1.49675 8.59662,-1.71047 14.375,-3.57143 5.93782,-1.50812 5.95855,-5.84369 8.81228,-9.29396 1.5286,-1.62395 5.31183,-0.19649 9.13415,0.9011 4.0579,0.95318 7.5856,1.73225 9.64285,0.44644 4.8727,-4.3425 0.51838,-5.11564 6.70862,-9.18569 2.84739,-1.87214 5.81586,-4.95669 11.86282,-10.10003 6.88957,-7.13558 13.83322,-3.69392 17.54332,-11.50254 -2.90506,-2.45033 -6.44146,-5.15319 -2.27546,-11.26532 z"
       style="fill:#808000;"
       class="subregion" />
    <path
       style="fill:#666666;"
       class="subregion"
       d="m 865.57904,618.49747 c -3.7101,7.80862 -10.65375,4.36696 -17.54332,11.50254 -6.04696,5.14334 -9.01543,8.22789 -11.86282,10.10003 -6.19024,4.07005 -1.83592,4.84319 -6.70862,9.18569 -2.05725,1.28581 -5.58495,0.50674 -9.64285,-0.44644 -3.82232,-1.09759 -7.60555,-2.52505 -9.13415,-0.9011 -2.85373,3.45027 -2.87446,7.78584 -8.81228,9.29396 -5.77838,1.86096 -8.27194,2.07468 -14.375,3.57143 -8.83278,2.82671 -12.12661,0.43461 -16.51785,7.23214 -5.58566,6.86436 -7.19786,10.0176 -13.03572,17.94643 -4.75785,3.76331 -4.48356,8.60325 -6.42857,13.75 -2.26722,5.39967 -0.63334,8.16495 -0.26786,13.48215 2.23126,4.65593 4.08854,8.08201 7.14286,13.03571 0.92197,2.6344 4.53479,5.32675 0.35714,6.51786 -1.68568,0.81617 -4.06795,3.20713 -5.17857,2.71743 1.25135,6.48616 -2.04781,11.26677 -3.4069,15.76208 -2.39616,6.61188 2.89842,12.14382 3.03046,14.64722 0.52728,3.49013 -0.45445,6.33121 5.55584,8.71256 10.50766,15.75353 6.62472,2.95649 18.83157,17.37278 2.81704,-6.06896 1.62193,-5.48356 3.64322,-10.48233 2.57217,-3.7251 2.78013,-4.4443 10.77512,-2.97611 11.42215,-1.45078 13.34793,-4.73311 20.85975,-10.61809 5.12239,-3.25793 11.90546,-8.64577 21.02044,-9.33242 1.71624,0.18904 3.20336,0.96814 2.27284,-2.27285 1.11285,-1.8284 0.84813,-4.10056 5.17703,-0.88388 4.25622,2.97421 12.63805,-0.10531 8.81928,-8.47521 -2.92996,-5.08703 -2.78114,-7.87031 -3.21864,-13.05445 -0.0713,-4.61574 3.06574,-1.81927 5.2585,0.9478 9.31363,4.78907 6.95026,-0.78716 6.18719,-2.65165 -0.47968,-1.64815 0.73022,-2.96606 3.11675,-3.09158 3.43433,-0.44775 1.8135,-6.30093 -2.99048,-4.10575 -1.29044,1.23884 -4.88319,-1.28203 -1.01015,-4.79823 3.25417,-2.70625 2.40582,-3.50816 1.13642,-6.9448 -0.98969,-2.71543 -2.10388,-5.56785 0.75761,-5.55584 0,0 7.6578,2.00705 2.04129,0.88688 -1.48509,-0.36592 -3.06023,-7.30585 0.35715,-10.35715 2.97168,-3.84832 11.22794,-4.0245 10.35714,-11.15265 0.2359,-5.3336 1.6248,-4.79885 8.92857,-9.20449 6.26425,-2.75558 6.7585,-6.00412 9.56505,-12.86862 4.84021,-4.73793 2.48291,-6.76918 -3.04719,-9.98852 -5.04952,-1.79872 -3.28509,-10.71709 -8.15499,-15.7938 -4.37409,-3.15883 -5.88421,-0.58915 -8.36287,-14.38477 -1.65223,-2.37584 -3.75088,-4.30526 -5.49239,-6.32396 z"
       id="svobodnyisub"
       inkscape:connector-curvature="0"
       sodipodi:nodetypes="ccscccccccccccccccccccccccccccccccccccccccc" />
    <path
       sodipodi:nodetypes="cccccccccccccccccccccccccccc"
       inkscape:connector-curvature="0"
       id="blagoveschensksub"
       d="m 812.86049,767.90341 c -7.51182,5.88498 -9.4376,9.16731 -20.85975,10.61809 -7.99499,-1.46819 -8.20295,-0.74899 -10.77512,2.97611 -2.02129,4.99877 -0.82618,4.41337 -3.64322,10.48233 3.85945,5.21547 7.56565,10.85232 11.52474,15.16292 3.88162,5.44735 9.78201,1.51448 8.92858,12.12111 -1.60749,9.30178 8.6412,8.91247 10,18.59317 1.53779,6.81789 0.81426,6.27308 -1.07143,10.35714 -3.20894,4.22931 -2.73978,6.70512 2.32143,6.78571 6.14336,5.31757 3.69688,10.77573 2.85714,14.77795 -2.30633,6.995 6.2603,8.64866 11.42857,8.79349 5.65889,0.78188 12.52655,1.69402 16.01005,4.93861 4.39171,4.18221 4.34763,5.84408 0.0614,18.27567 -3.38879,6.80507 2.89554,3.25336 8.39286,3.21428 6.79401,0.56114 9.25572,-1.215 8.75,-6.60713 0.057,-5.98274 -2.51602,-9.65162 -6.07143,-15.35715 -3.16689,-2.73166 -2.09162,-7.19501 -2.14286,-9.46428 3.99695,-2.96041 2.47299,-5.118 0.35715,-7.67857 -5.66294,-2.64348 -4.39286,4.19489 -7.14286,-8.21429 -0.39712,-7.73688 -3.87364,-8.47025 -7.85714,-13.03571 -1.93065,-4.60241 -2.18279,-7.37322 1.07142,-10.00001 0.98666,-2.91189 2.2842,-7.54588 0,-10.31365 -1.34628,-6.70746 2.55801,-10.28255 1.42858,-18.0792 -0.23573,-3.1952 -0.81426,-9.44816 -0.53572,-12.45652 2.17473,-6.70339 4.85502,-2.25777 5.71429,-12.72205 -1.214,-5.19207 -4.15845,-9.72246 -3.75,-14.82143 0.83947,-2.52649 -1.87621,-6.90292 -1.25,-7.14286 -8.16914,-1.78023 -17.09861,4.52729 -23.74668,8.79627 z"
       style="fill:#ffff7f;"
       class="subregion" />
    <path
       style="fill:#ffe4d4;"
       class="subregion"
       d="m 838.03574,766.02679 c 0.25911,-2.34792 -1.60835,-5.87614 -1.42857,-6.91965 -0.26735,-2.49451 -0.4534,-2.809 -0.4534,-2.809 1.11285,-1.8284 0.84813,-4.10056 5.17703,-0.88388 4.25622,2.97421 12.63805,-0.10531 8.81928,-8.47521 -2.92996,-5.08703 -2.78114,-7.87031 -3.21864,-13.05445 -0.0713,-4.61574 3.06574,-1.81927 5.2585,0.9478 9.31363,4.78907 6.95026,-0.78716 6.18719,-2.65165 -0.47968,-1.64815 0.73022,-2.96606 3.11675,-3.09158 3.43433,-0.44775 1.8135,-6.30093 -2.99048,-4.10575 -1.29044,1.23884 -4.88319,-1.28203 -1.01015,-4.79823 3.25417,-2.70625 2.40582,-3.50816 1.13642,-6.9448 -0.98969,-2.71543 -2.10388,-5.56785 0.75761,-5.55584 l 2.04129,0.88688 c 5.61651,1.12017 8.80896,1.49194 13.30358,2.23214 4.88311,4.4991 4.44375,2.24517 7.30797,-2.5948 0.80426,-1.35903 7.64962,-1.07797 11.44202,-0.26235 5.3413,3.04279 6.51423,-5.72403 2.58929,-8.92856 -3.65191,-2.92548 -1.65748,-5.02522 1.85946,-3.55843 3.18349,1.32772 4.17874,-4.71107 7.42625,-5.10229 10.02681,0.85264 8.19427,3.67793 8.82278,7.64331 -0.47599,9.05028 15.19969,6.44938 23.2308,5.57098 3.81318,-0.43305 8.49894,-2.76121 9.21239,3.83662 0.69657,6.44167 6.51504,-4.39118 13.55546,8.12766 8.88432,7.16539 15.01457,16.75992 19.82143,12.85714 -1.81766,1.40744 -3.21428,1.96429 -3.21428,1.96429 -2.64306,5.97503 -4.43437,1.26834 -8.03572,8.92857 -3.87044,7.04934 -7.75736,7.68566 -9.10714,13.21429 -3.05196,2.71581 -4.19492,2.10449 -6.09646,2.17712 -2.1736,0.71503 0.0119,2.52934 -2.29639,3.44787 -6.35455,3.08893 -4.22067,4.35806 -12.32143,7.32143 -5.14466,2.08329 -8.77224,0.27743 -12.85715,3.03572 -3.74526,4.52237 -5.89572,-0.38098 -7.38601,-6.8e-4 -1.30829,-0.3041 -2.91906,-0.31724 -3.59613,-0.98146 -3.27567,-1.54297 -3.16242,3.80537 -6.60715,0.80357 -1.04984,-2.3644 -5.50856,-0.87852 -7.52946,-1.07143 -5.53667,-0.0683 -6.45383,0.59631 -8.89911,1.33929 -3.8535,0.99355 -8.11242,-0.85877 -12.49999,0.89285 -6.37568,2.27269 -5.36824,-0.1276 -8.52657,0.0893 -4.71321,0.34677 -9.66318,2.90538 -12.09844,0.53571 -1.13631,-0.91483 -3.40384,-4.73712 -5.17857,-1.33928 -0.12897,1.89693 -4.8423,0.59544 -7.67857,-0.17858 -2.33591,-0.57117 -4.03305,-2.69021 -6.07142,-2.72321 z"
       id="seryshevosub"
       inkscape:connector-curvature="0"
       sodipodi:nodetypes="cccccccccccccccsccscccsccccccccccccccccccccc" />
    <path
       sodipodi:nodetypes="ccccccscccsccccccccccccccccccsccccccccccccccccccccccccccccccccccsccccccccccccccccc"
       inkscape:connector-curvature="0"
       id="romnysub"
       d="m 954.75176,754.81105 c 1.8569,-0.16192 1.83914,0.40476 4.8911,-2.31105 1.34978,-5.52863 5.2367,-6.16495 9.10714,-13.21429 3.60135,-7.66023 5.39266,-2.95354 8.03572,-8.92857 L 980,728.39285 c 7.91448,-6.09256 5.14011,-6.05687 9.19643,-9.99999 4.11146,-3.90525 5.25938,-9.0688 8.8986,-8.63336 2.63217,0.31495 5.56787,-1.75141 7.52997,-5.3845 4.9515,-5.98949 -1.2751,-15.35857 3.75,-21.07143 4.5964,-7.29264 12.5215,-6.64628 17.4108,-6.25 5.2247,1.84145 10.1374,1.28047 12.784,-2.01591 3.3934,-4.22656 9.0413,-4.60907 13.823,-3.69837 3.7953,1.60391 3.9588,-0.64506 6.7858,-2.58929 5.2387,-0.22841 17.565,-1.20815 22.8571,-3.39286 6.9399,-1.11513 10.0211,-2.58907 15.7143,-1.78571 7.6306,0.94917 0.557,-7.29243 5.3571,-7.5 4.6014,-2.56893 2.6569,-2.22782 5.2679,-4.91072 4.169,-4.74463 12.773,1.58882 16.6964,5.08929 2.7778,2.48459 4.9056,3.90755 6.5594,3.35401 0.7139,3.15531 -0.8006,8.16931 -5.0415,7.44956 -2.7681,-0.52213 -4.4342,1.38962 -5.1786,1.96428 -2.6994,2.3404 -2.264,4.02119 -2.2321,9.82144 -0.6808,3.40447 -0.745,5.61079 -3.2143,7.94642 -2.4123,2.44827 0.1013,5.20077 -0.3572,8.92858 0.019,3.6876 1.074,6.57577 -0.4463,8.39286 -2.6096,2.18162 -5.0136,2.17076 -5.8037,2.76785 -1.808,1.3033 -7.9323,-0.4117 -7.3214,3.66071 -0.2361,2.94348 -2.1194,7.27077 2.1429,8.21429 2.3933,1.18323 2.7839,0.87563 4.5535,3.92857 0.4945,1.40945 2.1408,3.2456 3.5061,3.31994 3.7045,0.20172 2.4919,2.28837 -1.006,3.19792 -2.4988,0.67938 -4.5299,0.94753 -4.0179,4.86729 -0.2334,4.59824 -1.75,7.39815 -3.75,11.29342 0.076,3.35512 -3.2034,5.42315 -0.8036,8.57143 4.5664,2.4906 1.4856,5.82149 -0.1811,5.98215 -2.4698,0.24806 -3.2808,5.28099 0.9847,6.78571 2.7288,2.32643 4.1617,3.51605 6.7838,3.83551 0.2727,1.37564 1.1373,2.23148 0.8948,4.8252 -2.044,2.45262 -4.8109,1.42772 -7.5,2.5 -1.7216,1.44203 -1.9161,4.09081 -3.9286,5 -2.0345,3.90692 -3.3975,3.18065 -7.1429,2.67857 -5.3125,1.93689 -12.5684,-2.56221 -15.8928,1.96429 -1.3782,2.24977 3.2096,13.07914 4.0179,15.53571 0.4986,2.82157 5.8269,2.44033 4.7321,6.07143 -5.0544,-0.0821 -10.4737,-0.0227 -15.3572,0.71429 -3.0381,-3.50237 -6.6657,-7.68013 -8.5444,-11.43681 -4.0505,-3.06465 -5.1947,-2.92698 -6.6341,-2.13462 -4.2596,1.53636 -7.4801,0.40377 -10.0001,-3.21429 -5.0388,-5.15849 -11.1675,-1.18842 -21.6071,-3.03571 -3.0408,-0.79609 -5.2319,0.87097 -6.4286,5 -0.5398,1.75951 -0.1047,6.49042 -6.0713,2.76786 -8.5301,-6.90026 -6.7169,-1.58284 -9.981,3.91854 -2.0432,4.03467 -3.60383,2.54351 -6.62623,2.0636 -2.23945,-0.489 -4.53842,-0.11648 -6.60714,1.875 -2.37762,1.61986 -4.1553,1.23039 -8.08158,0 -3.26573,-1.22668 -9.41383,-4.52888 -10.98214,-0.35714 -0.41565,1.22228 -0.78362,1.56913 -3.61485,2.41071 -2.85116,0.63239 -8.20418,-1.36214 -12.14286,0.17857 -1.15807,-0.0345 -2.85897,3.36253 0,4.28572 0.8498,2.31569 3.12871,4.12812 2.85714,10.26786 -0.73941,3.87805 -5.07652,2.90217 -2.23214,10 3.30171,9.51461 1.33545,7.3482 -1.07143,8.83928 -4.5741,2.3469 -2.34802,1.07994 -5.80357,-4.10714 -5.59575,-6.70425 -3.85458,-10.51573 -10.17858,-8.66071 -1.1345,0.30661 -4.90471,-0.33691 -8.00154,0.4231 -2.16727,0.53189 -4.19386,1.73997 -6.64131,2.70189 -3.34203,0.46214 -4.25733,8.85705 -5.625,-0.89285 -2.006,-6.63519 -1.49676,-9.91332 -6.875,-10.53572 -1.84624,-0.74682 -5.39156,-2.33219 -1.96428,-4.10714 4.01493,0.18358 6.89836,0.37283 9.46428,-3.03571 2.30797,-2.89662 5.91222,-0.0433 9.28571,-3.92858 1.63232,-0.86704 0.57141,-0.99768 3.75001,-2.14285 3.44948,-0.97803 5.92294,-0.68028 7.67857,-2.85715 0.43477,-2.72528 0.82036,-4.04656 3.92857,-5.71428 4.16773,-0.83555 7.16929,0.29348 9.28571,-2.67857 2.52104,-3.58769 -3.10718,-10.1622 2.85714,-7.76787 2.44759,1.29578 3.70169,2.80013 6.60715,-1.16071 2.92178,-1.72461 2.34405,-5.78275 0.53571,-8.03571 -1.86367,-1.03157 -4.11059,-3.51949 0,-4.46429 1.84012,-0.32644 2.29037,-1.96427 0.71429,-4.10714 -1.88171,-2.37869 -2.96565,-3.00106 -3.92857,-4.82143 -3.17835,-2.52828 -2.76123,-3.02689 -3.6411,-10.54609 z"
       style="fill:#ff7f2a;"
       class="subregion" />
    <path
       style="fill:#d40000;"
       class="subregion"
       d="m 837.98344,766.09216 c -0.56629,5.47778 2.40973,9.7872 3.62373,14.97927 -0.85927,10.46428 -3.66583,6.33433 -5.84056,13.03772 2.69596,1.24679 3.23218,-0.28723 5.05911,-0.30903 3.44065,0.73531 5.30537,0.81207 9.25362,0.0631 3.57221,-0.30376 5.88271,-0.28119 4.88852,3.7655 -0.17827,3.16761 -1.08814,5.51689 2.08344,8.16693 1.37292,1.40671 3.30272,1.16141 4.41942,2.77792 0.89131,1.08136 0.47847,1.83673 2.20971,3.15673 1.05737,0.96606 1.63035,1.81336 3.59688,1.44835 3.20363,0.0341 2.55616,2.81329 5.71987,2.40285 1.28892,-0.0685 3.10095,-1.24086 4.88852,-0.69447 1.42274,0.76298 4.05979,0.50791 5.53749,0.0631 1.64283,-0.45067 4.2097,-0.79646 5.70045,0.94702 2.0861,0.95912 4.02813,1.68334 7.51302,1.07328 3.37865,-0.66067 2.8436,-2.54447 5.36643,-1.83089 1.84268,0.13214 1.50215,0.2386 3.21986,0.94701 0.82876,0.4369 2.16259,0.053 2.99134,-0.0151 4.01493,0.18358 6.89836,0.37283 9.46428,-3.03571 2.30797,-2.89662 5.91222,-0.0433 9.28571,-3.92858 1.63232,-0.86704 0.57141,-0.99768 3.75001,-2.14285 3.44948,-0.97803 5.92294,-0.68028 7.67857,-2.85715 0.43477,-2.72528 0.82036,-4.04656 3.92857,-5.71428 4.16773,-0.83555 7.16929,0.29348 9.28571,-2.67857 2.52104,-3.58769 -3.10718,-10.1622 2.85714,-7.76787 2.44759,1.29578 3.70169,2.80013 6.60715,-1.16071 2.92178,-1.72461 2.34405,-5.78275 0.53571,-8.03571 -1.86367,-1.03157 -4.11059,-3.51949 0,-4.46429 1.84012,-0.32644 2.29037,-1.96427 0.71429,-4.10714 -1.88171,-2.37869 -2.96565,-3.00106 -3.92857,-4.82143 -3.17835,-2.52828 -2.76123,-3.02689 -3.6411,-10.54609 l -1.20536,-0.13395 c -2.1736,0.71503 0.0119,2.52934 -2.29639,3.44787 -6.35455,3.08893 -4.22067,4.35806 -12.32143,7.32143 -5.14466,2.08329 -8.77224,0.27743 -12.85715,3.03572 -3.74526,4.52237 -5.89572,-0.38098 -7.38601,-6.8e-4 -1.30829,-0.3041 -2.91906,-0.31724 -3.59613,-0.98146 -3.27567,-1.54297 -3.16242,3.80537 -6.60715,0.80357 -1.04984,-2.3644 -5.50856,-0.87852 -7.52946,-1.07143 -5.53667,-0.0683 -6.45383,0.59631 -8.89911,1.33929 -3.8535,0.99355 -8.11242,-0.85877 -12.49999,0.89285 -6.37568,2.27269 -5.36824,-0.1276 -8.52657,0.0893 -4.71321,0.34677 -9.66318,2.90538 -12.09844,0.53571 -1.13631,-0.91483 -3.40384,-4.73712 -5.17857,-1.33928 -0.12897,1.89693 -4.8423,0.59544 -7.67857,-0.17858 -2.33591,-0.57117 -4.03305,-2.69021 -6.07142,-2.72321 -0.76701,-0.0775 -1.41787,0.0471 -2.01657,0.24394 z"
       id="belogorsksub"
       inkscape:connector-curvature="0"
       sodipodi:nodetypes="ccccccccccccccccccccccccccccccccccccccccccccccc" />
    <path
       style="fill:#ff00ff;"
       class="subregion"
       d="m 905.22295,816.08655 c -1.71771,-0.70841 -1.37718,-0.81487 -3.21986,-0.94701 -2.52283,-0.71358 -1.98778,1.17022 -5.36643,1.83089 -3.48489,0.61006 -5.42692,-0.11416 -7.51302,-1.07328 -1.49075,-1.74348 -4.05762,-1.39769 -5.70045,-0.94702 -1.4777,0.44481 -4.11475,0.69988 -5.53749,-0.0631 -1.78757,-0.54639 -3.5996,0.62597 -4.88852,0.69447 -3.16371,0.41044 -2.51624,-2.36875 -5.71987,-2.40285 -1.96653,0.36501 -2.53951,-0.48229 -3.59688,-1.44835 -1.73124,-1.32 -1.3184,-2.07537 -2.20971,-3.15673 -1.1167,-1.61651 -3.0465,-1.37121 -4.41942,-2.77792 -3.17158,-2.65004 -2.26171,-4.99932 -2.08344,-8.16693 0.99419,-4.04669 -1.31631,-4.06926 -4.88852,-3.7655 -3.94825,0.74897 -5.81297,0.67221 -9.25362,-0.0631 -1.82693,0.0218 -1.87208,1.75671 -4.88054,0.39832 -0.45976,2.47666 0.39082,8.36466 0.48342,12.05156 1.12943,7.79665 -2.77486,11.37174 -1.42858,18.0792 2.2842,2.76777 0.98666,7.40176 0,10.31365 -3.25421,2.62679 -3.00207,5.3976 -1.07142,10.00001 3.9835,4.56546 7.46002,5.29883 7.85714,13.03571 2.75,12.40918 1.47992,5.57081 7.14286,8.21429 2.11584,2.56057 2.018,2.37574 2.005,4.52327 6.80305,1.25334 6.10308,2.99554 9.60228,2.55471 3.48073,-0.21596 5.01397,1.48563 8.58178,2.22688 3.97519,0.54793 7.04575,1.97889 11.23028,2.98582 6.28067,1.2982 5.33289,-2.36008 9.77239,-2.60066 3.66094,-0.092 7.92895,-0.75714 11.86856,-0.0787 6.84057,-0.54501 3.8962,-1.29743 4.37048,-8.62661 0.16264,-4.79472 -1.10928,-4.31702 4.26596,-4.64734 7.37501,-0.23387 5.28403,1.42544 5.1099,-10.60001 -0.75509,-3.60514 2.5413,-4.90294 4.27784,-6.47191 2.55566,-1.75441 4.85775,-3.24805 4.24811,-5.04224 -0.0819,-3.87044 -1.20106,-0.37998 -4.8961,-3.95274 -1.24005,-0.60979 -1.56884,-0.87771 -2.31151,-5.44904 -2.006,-6.63519 -1.49676,-9.91332 -6.875,-10.53572 -1.84624,-0.74682 -5.39156,-2.33219 -1.96428,-4.10714 -1.52078,0.22822 -2.2434,0.20111 -2.99134,0.0151 z"
       id="ivanovkasub"
       inkscape:connector-curvature="0"
       sodipodi:nodetypes="cccccccccccccccccccccccccccccccccccccc" />
    <path
       sodipodi:nodetypes="ccccccccccccccccccccccccccccccc"
       inkscape:connector-curvature="0"
       id="tambovkasub"
       d="m 850.9336,870.41613 c 6.80305,1.25334 6.10308,2.99554 9.60228,2.55471 3.48073,-0.21596 5.01397,1.48563 8.58178,2.22688 3.97519,0.54793 7.04575,1.97889 11.23028,2.98582 6.28067,1.2982 5.33289,-2.36008 9.77239,-2.60066 3.66094,-0.092 7.92895,-0.75714 11.86856,-0.0787 6.84057,-0.54501 3.8962,-1.29743 4.37048,-8.62661 0.16264,-4.79472 -1.10928,-4.31702 4.26596,-4.64734 5.54411,-0.2023 5.84499,-0.23873 5.86637,1.04719 0.18694,2.2779 1.04644,5.14561 0.96868,9.60839 1.21718,5.70684 1.03028,7.04665 2.89676,12.11419 0.52491,6.89479 5.22285,6.01795 4.99999,13.09348 -0.0589,1.90575 -0.36802,6.36578 -0.53509,9.31661 -1.5625,1.43914 -4.54213,4.64172 -4.12171,4.99435 -1.74213,0.86024 -4.8329,-0.4591 -5.30515,-0.12128 -2.74391,-0.18093 -3.11796,-3.8743 -7.09161,0.21684 -1.46872,2.64651 -5.2266,1.64823 -10.28695,4.12235 -3.91215,0.96749 -4.29664,2.72578 -4.71306,5.96694 -1.83367,5.98432 -4.09398,4.48987 -10.80169,-0.71242 -7.63035,-4.82034 -5.0387,-1.02658 -5.98401,4.73027 -1.40607,7.78764 -1.95977,8.93743 -6.1601,14.10652 -3.75921,5.23525 -7.48522,6.68282 -12.14348,9.5542 -3.05935,-5.0905 -6.51678,-3.02413 -10.89285,-4.375 -7.65684,-1.57064 -3.7162,-6.95144 -4.46429,-13.57143 -1.27017,-4.91182 -1.84949,-6.71545 -4.25702,-8.84248 -4.29689,-3.78501 -2.87521,-14.75965 -0.36417,-18.05156 3.39756,1.27573 4.30247,-0.38832 9.79979,-0.4274 6.79401,0.56114 9.25572,-1.215 8.75,-6.60713 0.057,-5.98274 -2.51602,-9.65162 -6.07143,-15.35715 -3.16689,-2.73166 -2.09162,-7.19501 -2.14286,-9.46428 0,0 2.24888,-1.57789 2.36215,-3.1553 z"
       style="fill:#808080;"
       class="subregion" />
    <path
       style="fill:#ac9393;"
       class="subregion"
       d="m 920.70033,912.40444 c -1.74213,0.86024 -4.8329,-0.4591 -5.30515,-0.12128 -2.74391,-0.18093 -3.11796,-3.8743 -7.09161,0.21684 -1.46872,2.64651 -5.2266,1.64823 -10.28695,4.12235 -3.91215,0.96749 -4.29664,2.72578 -4.71306,5.96694 -1.83367,5.98432 -4.09398,4.48987 -10.80169,-0.71242 -7.63035,-4.82034 -5.0387,-1.02658 -5.98401,4.73027 -1.40607,7.78764 -1.95977,8.93743 -6.1601,14.10652 -3.75921,5.23525 -7.48522,6.68282 -12.14348,9.5542 2.0547,2.38822 2.12806,6.53763 2.01177,7.86405 0.31679,6.2486 4.46964,6.06923 6.35859,6.69958 1.85632,0.7289 3.06784,1.52618 4.92448,3.34617 1.28593,2.41358 2.45027,3.27896 4.1669,3.28296 2.97519,0.15243 2.7771,-1.03238 4.54564,-3.78801 2.22154,-5.59508 8.45512,-2.84621 13.00088,1.27449 2.27881,0.4235 1.42222,2.35783 6.29617,2.5326 6.67356,0.48652 6.7339,3.45124 11.19002,-1.9855 1.95679,-1.6121 1.10627,-3.70534 5.37336,-2.70549 4.9311,2.72334 3.95497,-4.45066 10.48033,-7.19741 -0.58954,-4.14547 -4.7087,-5.47507 -5.3033,-10.85909 -0.002,-2.62727 0.002,-5.26387 0,-7.895 0.23411,-1.60601 1.54117,-1.33425 3.03045,-0.94384 1.34095,-0.0776 5.23861,0.98339 3.85121,-3.09359 0.33061,-2.974 0.0114,-4.81039 -4.23001,-7.00793 -7.30146,-5.05471 -3.42486,-11.4353 -3.21044,-17.38741 z"
       id="konstantinovkasub"
       inkscape:connector-curvature="0"
       sodipodi:nodetypes="ccccccccccccccccccccccccc" />
    <path
       sodipodi:nodetypes="cccccsccccccccccccccccccccccccccccccccccc"
       inkscape:connector-curvature="0"
       id="oktyabrskysub"
       d="m 915.73523,851.63022 c -0.75509,-3.60514 2.5413,-4.90294 4.27784,-6.47191 2.55566,-1.75441 4.85775,-3.24805 4.24811,-5.04224 -0.0819,-3.87044 -1.83241,-0.94819 -5.52745,-4.52095 1.49911,-2.21694 2.36522,-3.23696 3.94484,-3.98798 2.44745,-0.96192 4.47404,-2.17 6.64131,-2.70189 3.09683,-0.76001 6.86704,-0.11649 8.00154,-0.4231 6.324,-1.85502 4.58283,1.95646 10.17858,8.66071 3.45555,5.18708 1.22947,6.45404 5.80357,4.10714 2.40688,-1.49108 4.37314,0.67533 1.07143,-8.83928 -2.84438,-7.09783 1.49273,-6.12195 2.23214,-10 0.27157,-6.13974 -2.00734,-7.95217 -2.85714,-10.26786 -2.85897,-0.92319 -1.15807,-4.32022 0,-4.28572 3.93868,-1.54071 9.2917,0.45382 12.14286,-0.17857 2.83123,-0.84158 3.1992,-1.18843 3.61485,-2.41071 1.56831,-4.17174 7.71641,-0.86954 10.98214,0.35714 3.92628,1.23039 5.70396,1.61986 8.08158,0 2.06872,-1.99148 4.36769,-2.364 6.60714,-1.875 1.81548,0.65476 2.73809,0.77381 4.375,0.98215 0.26157,3.41042 -1.35187,9.2152 1.16073,8.83928 4.8994,3.74846 10.7186,8.42395 10.8928,14.22341 0.5013,4.51062 -1.9049,6.13109 -4.1071,9.61587 -1.2627,4.16843 -2.4643,0.87136 -4.2029,13.12354 -1.6946,5.7041 -5.31947,4.29198 -8.56562,5.89432 -5.64787,1.60391 -9.86132,5.29632 -10.6648,7.35631 -0.53904,2.76983 -5.9382,2.99174 -6.56668,8.35798 -0.20265,1.01768 0.002,2.70364 -2.5893,3.03572 -2.55206,1.5627 -1.31893,6.47065 -3.93755,9.55357 -3.07421,4.00757 -3.72721,-0.22617 -4.99101,-1.33929 -2.67372,-5.87726 -3.75403,-4.00653 -3.125,0.35714 -0.36942,5.03136 -3.50689,4.72305 -8.125,5.35714 -6.28318,0.74346 -4.53511,3.89607 -4.73215,6.35793 -0.003,3.17757 0.004,6.36278 0,9.53493 -1.26139,1.9845 -0.52454,6.74714 -4.20542,6.07143 -2.92915,-0.19073 -6.39207,0.69369 -8.65172,-1.42857 -2.97963,-2.67639 -12.17849,-0.58935 -12.32081,-2.23277 0.16707,-2.95083 0.47619,-7.41086 0.53509,-9.31661 0.22286,-7.07553 -4.47508,-6.19869 -4.99999,-13.09348 -1.86648,-5.06754 -1.67958,-6.40735 -2.89676,-12.11419 0.0778,-4.46278 -0.78174,-7.33049 -0.96868,-9.60839 -0.78787,-3.79311 -0.50431,-7.85409 -0.75647,-11.6472 z"
       style="fill:#00ffff;"
       class="subregion" />
    <path
       style="fill:#93aca7;"
       class="subregion"
       d="m 1001.8048,801.6864 c 3.2641,-5.50138 1.4509,-10.8188 9.981,-3.91854 5.9666,3.72256 5.5315,-1.00835 6.0713,-2.76786 1.1967,-4.12903 3.3878,-5.79609 6.4286,-5 10.4396,1.84729 16.5683,-2.12278 21.6071,3.03571 2.52,3.61806 5.7405,4.75065 10.0001,3.21429 1.4394,-0.79236 2.5836,-0.93003 6.6341,2.13462 1.8787,3.75668 5.5063,7.93444 8.5444,11.43681 -0.1019,3.59278 1.6218,8.16394 -0.5357,8.03571 -2.2024,-0.21706 -4.1336,-3.15433 -6.25,-1.78571 -1.5898,3.16122 -5.2553,2.77671 -7.8571,3.39286 -2.2033,1.47855 -5.5755,2.64521 -5.1786,5.89285 -0.9443,2.80877 0.1481,6.10708 -0.3571,8.92858 -1.7025,2.35032 -5.2269,3.91598 -6.2317,6.7983 -2.1701,0.97306 -4.3544,2.19706 -6.9826,1.9517 -0.4789,0.96385 1.2882,4.78283 1.4286,7.11929 -0.417,2.99909 -1.2778,5.39148 -1.0715,8.21428 0.1501,3.3862 -0.2731,6.47446 -2.8571,8.77357 -1.3198,1.85354 -1.5702,3.77788 -2.5,5.53571 0.053,2.55141 1.8915,4.42222 1.6071,7.14286 0.175,3.95342 -4.7991,2.866 -6.0714,5.89286 -1.3869,2.24817 -3.2115,3.78479 -5.3572,5 -0.885,3.26756 3.5847,8.74257 -2.3214,7.85714 -3.5315,-0.2502 -3.7845,3.26908 -1.4286,5.17857 2.0248,2.13234 1.8195,4.77592 -1.4285,5.53572 -2.2836,2.31762 -7.0374,3.43703 -10.3572,3.39286 -2.9723,-0.20323 -3.2478,1.14053 -7.1429,2.85714 -3.67639,-8.86682 -5.6456,-14.55957 -7.67851,-16.25001 -3.68712,-0.71304 -7.05427,-3.22173 -9.82142,-6.24999 -0.883,-0.47119 -1.96759,-0.57929 -2.72322,-0.0446 -2.20251,1.92398 -4.00214,-3.35156 -5.75893,-5.08929 -1.07518,-1.36967 -2.49566,-1.60051 -3.22327,-3.16964 2.61862,-3.08292 1.38549,-7.99087 3.93755,-9.55357 2.5913,-0.33208 2.38665,-2.01804 2.5893,-3.03572 0.62848,-5.36624 6.02764,-5.58815 6.56668,-8.35798 0.80348,-2.05999 5.01693,-5.7524 10.6648,-7.35631 3.24615,-1.60234 6.87102,-0.19022 8.56562,-5.89432 1.7386,-12.25218 2.9402,-8.95511 4.2029,-13.12354 2.2022,-3.48478 4.6084,-5.10525 4.1071,-9.61587 -0.1742,-5.79946 -5.9934,-10.47495 -10.8928,-14.22341 -2.5126,0.37592 -0.89916,-5.42886 -1.16073,-8.83928 1.01823,-1.10455 1.59013,-1.67338 2.25123,-3.04579 z"
       id="zavitinsksub"
       inkscape:connector-curvature="0"
       sodipodi:nodetypes="cccccccccccccccccccccccccccccccccccccccccc" />
    <path
       style="fill:#ffdf55;"
       class="subregion"
       d="m 970.97315,884.73215 c -3.07421,4.00757 -3.72721,-0.22617 -4.99101,-1.33929 -2.67372,-5.87726 -3.75403,-4.00653 -3.125,0.35714 -0.36942,5.03136 -3.50689,4.72305 -8.125,5.35714 -6.28318,0.74346 -4.53511,3.89607 -4.73215,6.35793 -0.003,3.17757 0.004,6.36278 0,9.53493 -1.26139,1.9845 -0.52454,6.74714 -4.20542,6.07143 -2.92915,-0.19073 -6.39207,0.69369 -8.65172,-1.42857 -2.97963,-2.67639 -12.17849,-0.58935 -12.32081,-2.23277 -2.24364,1.60274 -3.37381,3.03297 -4.12171,4.99435 -0.21442,5.95211 -4.09102,12.3327 3.21044,17.38741 3.48207,1.85812 8.5068,9.30389 0.3788,10.10152 -1.48928,-0.39041 -2.79634,-0.66217 -3.03045,0.94384 0.002,2.63113 -0.002,5.26773 0,7.895 0.5946,5.38402 4.71376,6.71362 5.3033,10.85909 2.40321,-0.55682 1.47329,-0.57343 1.47329,-0.57343 1.91495,0.0138 4.69263,-1.04667 6.33929,-1.69647 2.26062,-0.8417 10.77517,-2.65521 12.58928,-3.21421 6.50824,-0.82828 12.07238,-1.8386 18.68221,-0.46108 4.31305,0.97772 6.44163,5.55401 6.76422,9.72282 0.25313,2.95134 -1.00385,6.38697 3.30356,4.05003 4.2741,-1.75751 6.38378,0.6223 10.7143,1.33104 4.22556,-0.26643 8.04307,2.04945 11.60714,4.8214 3.01829,0.66288 6.56179,7.01543 7.67859,1.16071 1.8503,-3.82355 8.1847,-3.49028 11.9643,-1.51781 5.8133,5.45963 -0.2593,-1.61113 4.6429,-6.69649 2.3702,-2.44321 -0.9874,-5.44551 -1.6641,-5.70661 -1.8206,-1.8956 -1.4118,-4.5335 -2.6217,-6.8826 -1.7939,-1.5073 -4.9134,0.5933 -6.7903,-0.8975 -1.7272,-1.5189 -1.4901,-5.02857 -4.7016,-4.45967 -5.7177,1.12006 -0.9559,-2.84734 -7.70183,-7.50243 -2.5835,-2.85757 -3.85592,-6.63643 -7.14555,-2.40828 -3.97382,3.97382 -3.25011,1.76191 -6.84785,-2.36129 -1.8141,-2.28058 -3.6282,-4.56117 -5.4423,-6.84175 -3.14402,-3.95248 -2.98214,-4.36821 -0.13016,-9.10564 8.29725,-14.57535 9.91431,-17.09889 11.97388,-21.2449 -3.10676,-0.9809 -5.80427,-3.04316 -8.57142,-6.07142 -0.883,-0.47119 -1.96759,-0.57929 -2.72322,-0.0446 -2.20251,1.92398 -4.09446,-3.26294 -5.75893,-5.08929 -1.97647,-1.55483 -3.22327,-3.16968 -3.22327,-3.16968 z"
       id="mihaylovskysub"
       inkscape:connector-curvature="0"
       sodipodi:nodetypes="cccccccccccccccccccccccccccccccccccccccc" />
    <path
       sodipodi:nodetypes="ccccccccccccccccccccccccccccccccccccccccccccccccccccccccccccccccccccccccccccccccccc"
       inkscape:connector-curvature="0"
       id="bureyasub"
       d="m 991.24999,899.10714 c -2.05957,4.14601 -3.67663,6.66955 -11.97388,21.2449 -2.85198,4.73743 -3.01386,5.15316 0.13016,9.10564 1.8141,2.28058 3.6282,4.56117 5.4423,6.84175 3.59774,4.1232 2.87403,6.33511 6.84785,2.36129 3.28963,-4.22815 4.56205,-0.44929 7.14555,2.40828 6.74593,4.65509 1.98413,8.62249 7.70183,7.50243 3.2115,-0.5689 2.9744,2.94077 4.7016,4.45967 1.8769,1.4908 4.9964,-0.6098 6.7903,0.8975 1.2099,2.3491 0.8011,4.987 2.6217,6.8826 1.0457,0.84569 2.0469,1.69138 2.4676,2.93886 2.1544,-2.17514 5.6508,-2.12194 8.4821,-2.14284 8.556,1.999 -0.3163,-5.10892 3.3507,-5.73476 4.4071,-0.88409 3.6338,-1.70781 2.4529,-3.81881 -1.2582,-2.52516 1.0408,-4.48928 3.4822,-5.44645 3.5374,-0.99457 0.039,-4.45114 3.5984,-4.90246 3.1481,-1.86595 -2.0219,-2.83672 2.2052,-6.97254 4.1918,-2.43004 -1.0189,-7.07232 5.4464,-5.89286 0.7836,0.27229 4.9947,1.60442 3.75,-2.05356 -2.1364,-1.67007 -1.6281,-4.05409 1.3491,-5.08929 2.6556,-0.47626 4.5558,-0.16483 4.1865,-5.17857 -0.9879,-3.42775 0.4493,-3.93128 4.4644,-5.44643 4.0082,-0.86768 9.7254,-2.69771 14.5539,-3.19152 12.0506,-0.58425 14.6278,-3.29952 17.2318,-6.71919 8.2534,-10.96934 11.4295,-18.44429 17.3214,-31.33929 1.7999,-5.38834 4.8207,-10.18478 3.3929,-16.42857 -0.7987,-2.5863 0.7441,-3.94758 -5.8929,-7.58929 -2.0532,-1.84719 -3.8919,-0.2072 -4.1071,-6.60714 1.9722,-8.94727 -2.9368,-4.73086 -1.4286,-11.16072 3.0939,-0.5186 6.1773,1.48956 8.9286,0.53572 5.2403,-2.05301 8.3986,3.38886 10.0892,-0.89286 2.018,-2.12477 2.0267,-4.36544 5.5325,-1.86397 3.7472,3.42714 8.3785,-0.56169 8.039,-3.85361 -1.5218,-5.25502 3.5396,-1.37979 6.6303,1.00804 6.0491,3.10823 6.0411,2.74547 13.6376,-2.61193 8.1466,-5.90001 7.8654,-8.1143 13.9285,-0.0893 6.0337,6.32132 6.9961,9.21995 10.7143,2.85714 0.7472,-1.68033 1.5528,-2.28408 4.6429,-3.66071 6.1402,-2.31989 4.1008,-5.21428 1.3392,-6.25 -3.5607,-1.02438 0.5829,-7.81881 -8.8392,-7.67857 -3.5815,0.38332 -5.4884,-3.49907 -6.4286,-8.03572 -0.2961,-2.1683 -0.938,-6.98469 -4.5536,-2.41072 -5.0109,4.11294 -9.6853,2.58383 -12.7679,-1.87499 -2.2608,-2.90999 -3.0326,-6.8409 -6.4285,-4.55357 -2.1227,1.09752 -5.0161,-2.01503 -4.8215,1.33928 -0.03,3.88843 1.1006,4.76869 -0.8928,6.51786 -1.9196,1.62035 -5.5087,6.88962 -7.5893,1.875 -2.3268,-10.06322 -7.1059,-4.58331 -6.875,-9.64286 -1.349,-5.92212 3.3524,-1.90256 3.4822,-7.23215 -0.3009,-2.32736 2.6977,-1.67236 2.0535,-5.44642 -0.5478,-2.70631 2.6503,-1.70529 2.8571,-6.60715 0.571,-3.6878 -3.1919,-0.5064 -3.8392,-5.71428 -0.6686,-3.22709 -8.1168,-6.51501 -10.4465,-4.46429 -5.5147,4.10336 -6.3849,2.5969 -10.2678,3.39287 -5.4642,3.21303 -0.4125,3.07799 -3.8412,7.85336 0.2727,1.37564 1.1373,2.23148 0.8948,4.8252 -2.044,2.45262 -4.8109,1.42772 -7.5,2.5 -1.7216,1.44203 -1.9161,4.09081 -3.9286,5 -2.0345,3.90692 -3.3975,3.18065 -7.1429,2.67857 -5.3125,1.93689 -12.5684,-2.56221 -15.8928,1.96429 -1.3782,2.24977 3.2096,13.07914 4.0179,15.53571 0.4986,2.82157 5.8269,2.44033 4.7321,6.07143 -5.0544,-0.0821 -10.4737,-0.0227 -15.3572,0.71429 -0.1786,2.67857 1.6072,8.48214 -0.5357,8.03571 -2.2024,-0.21706 -4.1336,-3.15433 -6.25,-1.78571 -1.5898,3.16122 -5.2553,2.77671 -7.8571,3.39286 -2.2033,1.47855 -5.5755,2.64521 -5.1786,5.89285 -0.9443,2.80877 0.1481,6.10708 -0.3571,8.92858 -1.7025,2.35032 -5.2269,3.91598 -6.2317,6.7983 -2.1701,0.97306 -4.3544,2.19706 -6.9826,1.9517 -0.4789,0.96385 1.2882,4.78283 1.4286,7.11929 -0.417,2.99909 -1.2778,5.39148 -1.0715,8.21428 0.1501,3.3862 -0.2731,6.47446 -2.8571,8.77357 -1.3198,1.85354 -1.5702,3.77788 -2.5,5.53571 0.053,2.55141 1.8915,4.42222 1.6071,7.14286 0.175,3.95342 -4.7991,2.866 -6.0714,5.89286 -1.3869,2.24817 -3.2115,3.78479 -5.3572,5 -0.885,3.26756 3.5847,8.74257 -2.3214,7.85714 -3.5315,-0.2502 -3.7845,3.26908 -1.4286,5.17857 2.0248,2.13234 1.8195,4.77592 -1.4285,5.53572 -2.2836,2.31762 -7.0374,3.43703 -10.3572,3.39286 -2.9723,-0.20323 -3.2478,1.14053 -7.1429,2.85714 -3.67639,-8.86682 -5.74971,-16.21122 -8.92851,-16.42858 z"
       style="fill:#808000;"
       class="subregion" />
    <path
       style="fill:#ffdd55;"
       class="subregion"
       d="m 1190.0899,826.1175 c -0.01,2.31001 -2.0017,3.73483 1.1325,5.94209 2.9084,2.45733 4.8418,4.48644 5.4927,8.9651 1.0698,4.02047 0.089,4.35568 -0.5051,5.24017 -2.3093,3.02186 0.9419,3.50526 3.0304,4.98762 2.2481,1.80538 4.7932,-0.27424 7.0712,2.39912 1.7624,1.52507 3.7709,1.61629 3.5355,10.22779 0.068,7.30144 -2.7028,9.60874 2.2096,11.36421 2.1025,0.72862 5.2577,4.39433 -4.1037,7.19735 -2.0317,0.97508 -6.8609,0.77716 -6.124,7.44987 0.6151,4.93765 3.4563,3.02253 4.9876,2.33598 4.9995,-2.53705 4.8408,3.40785 9.0283,3.78807 1.6233,0.15489 3.1277,1.12069 3.788,3.34613 3.2124,8.61735 -1.8739,5.91171 1.9572,10.79601 2.205,2.28087 2.4209,3.46722 2.1466,7.70241 -0.016,4.2204 1.3995,2.9483 2.841,6.25032 1.0921,3.13262 -1.8624,3.36531 -1.8308,7.56161 0.1492,3.25415 -1.878,10.21511 -1.8941,15.73499 -0.2327,8.46128 -6.7907,1.88174 -10.0384,7.00794 -2.4776,4.72215 -4.0159,-2.28261 -8.0812,3.53552 -3.9235,6.48896 -10.2777,-0.75461 -10.4804,6.56609 0.186,2.65193 -1.7768,2.90376 -2.3359,6.75539 -0.4159,1.88222 1.9385,8.49274 0.3156,16.35179 -1.1087,11.27731 3.1818,10.09556 2.7148,15.15233 -5.3161,-0.2051 -6.5536,-0.3149 -11.6799,0.1263 -5.3603,-0.055 -16.0346,9.7127 -20.645,15.531 -3.8076,4.3415 -7.791,8.2788 -11.4273,2.5885 -1.3014,-2.5663 -11.107,-2.9443 -14.7735,0.9471 -3.3123,3.215 -7.0311,9.678 -13.6371,3.7881 -8.8451,-6.8453 -22.0391,-8.621 -28.3474,-17.0463 -6.6001,-8.124 -11.2361,-1.3584 -10.9222,-10.22784 -0.1817,-9.80487 -11.0955,-1.60343 -11.6167,-11.49048 -0.061,-5.5149 -12.8481,-9.83782 -17.4883,-7.95496 -1.83,1.10212 -5.2595,3.04547 -6.3766,-6.43971 -2.8051,-6.25355 -6.1972,-8.65486 -12.3771,-10.97015 -0.1435,-2.54317 -3.1888,-5.2649 -0.6984,-5.7545 4.4071,-0.88409 3.6338,-1.70781 2.4529,-3.81881 -1.2582,-2.52516 1.0408,-4.48928 3.4822,-5.44645 3.5374,-0.99457 0.039,-4.45114 3.5984,-4.90246 3.1481,-1.86595 -2.0219,-2.83672 2.2052,-6.97254 4.1918,-2.43004 -1.0189,-7.07232 5.4464,-5.89286 0.7836,0.27229 4.9947,1.60442 3.75,-2.05356 -2.1364,-1.67007 -1.6281,-4.05409 1.3491,-5.08929 2.6556,-0.47626 4.5558,-0.16483 4.1865,-5.17857 -0.9879,-3.42775 0.4493,-3.93128 4.4644,-5.44643 4.0082,-0.86768 9.7254,-2.69771 14.5539,-3.19152 12.0506,-0.58425 14.6278,-3.29952 17.2318,-6.71919 8.2534,-10.96934 11.4295,-18.44429 17.3214,-31.33929 1.7999,-5.38834 4.8207,-10.18478 3.3929,-16.42857 -0.7987,-2.5863 0.7441,-3.94758 -5.8929,-7.58929 -2.0532,-1.84719 -3.8919,-0.2072 -4.1071,-6.60714 1.9722,-8.94727 -2.9368,-4.73086 -1.4286,-11.16072 3.0939,-0.5186 6.1773,1.48956 8.9286,0.53572 5.2403,-2.05301 8.3986,3.38886 10.0892,-0.89286 2.018,-2.12477 2.0267,-4.36544 5.5325,-1.86397 3.7472,3.42714 8.3785,-0.56169 8.039,-3.85361 -1.5218,-5.25502 3.5396,-1.37979 6.6303,1.00804 6.0491,3.10823 6.0411,2.74547 13.6376,-2.61193 8.1466,-5.90001 7.8654,-8.1143 13.9285,-0.0893 6.0337,6.32132 6.9961,9.21995 10.7143,2.85714 0.7472,-1.68033 1.5528,-2.28408 4.6429,-3.66071 -1.1366,2.72475 0.9901,4.64827 0.9827,6.65321 z"
       id="arharasub"
       inkscape:connector-curvature="0"
       sodipodi:nodetypes="sccccccccccccccccccccccccccccccccccccccccccccccccccccccccccccs" />
    <path
       sodipodi:type="arc"
       style="fill:#c83737;"
       class="subregion"
       id="tynda"
       sodipodi:cx="455.17856"
       sodipodi:cy="254.28571"
       sodipodi:rx="15"
       sodipodi:ry="15"
       d="m 470.17856,254.28571 c 0,8.28427 -6.71573,15 -15,15 -8.28427,0 -15,-6.71573 -15,-15 0,-8.28428 6.71573,-15 15,-15 8.28427,0 15,6.71572 15,15 z"
       transform="translate(0,-50)" />
    <path
       sodipodi:type="arc"
       style="fill:#2c5aa0;"
       class="subregion"
       id="zeya"
       sodipodi:cx="707.61188"
       sodipodi:cy="426.73334"
       sodipodi:rx="15"
       sodipodi:ry="15"
       d="m 722.61188,426.73334 c 0,8.28427 -6.71573,15 -15,15 -8.28427,0 -15,-6.71573 -15,-15 0,-8.28427 6.71573,-15 15,-15 8.28427,0 15,6.71573 15,15 z"
       transform="translate(0,-50)" />
    <path
       sodipodi:type="arc"
       style="fill:#d45500;"
       class="subregion"
       id="shimanovsk"
       sodipodi:cx="791.95959"
       sodipodi:cy="673.71564"
       sodipodi:rx="15"
       sodipodi:ry="15"
       d="m 806.95959,673.71564 c 0,8.28427 -6.71572,15 -15,15 -8.28427,0 -15,-6.71573 -15,-15 0,-8.28427 6.71573,-15 15,-15 8.28428,0 15,6.71573 15,15 z"
       transform="translate(0,-50)" />
    <path
       sodipodi:type="arc"
       style="fill:#53536c;"
       class="subregion"
       id="uglegorsk"
       sodipodi:cx="848.52814"
       sodipodi:cy="692.90851"
       sodipodi:rx="15"
       sodipodi:ry="15"
       d="m 863.52814,692.90851 c 0,8.28427 -6.71573,15 -15,15 -8.28427,0 -15,-6.71573 -15,-15 0,-8.28427 6.71573,-15 15,-15 8.28427,0 15,6.71573 15,15 z"
       transform="translate(0,-50)" />
    <path
       sodipodi:type="arc"
       style="fill:#5aa02c;"
       class="subregion"
       id="svobodnyi"
       sodipodi:cx="853.32635"
       sodipodi:cy="758.56842"
       sodipodi:rx="15"
       sodipodi:ry="15"
       d="m 868.32635,758.56842 c 0,8.28427 -6.71572,15 -15,15 -8.28427,0 -15,-6.71573 -15,-15 0,-8.28427 6.71573,-15 15,-15 8.28428,0 15,6.71573 15,15 z"
       transform="translate(0,-50)" />
    <path
       sodipodi:type="arc"
       style="fill:#37c871;"
       class="subregion"
       id="belogorsk"
       sodipodi:cx="896.63666"
       sodipodi:cy="818.79877"
       sodipodi:rx="15"
       sodipodi:ry="15"
       d="m 911.63666,818.79877 c 0,8.28427 -6.71573,15 -15,15 -8.28427,0 -15,-6.71573 -15,-15 0,-8.28427 6.71573,-15 15,-15 8.28427,0 15,6.71573 15,15 z"
       transform="translate(0,-50)" />
    <path
       sodipodi:type="arc"
       style="fill:#d40000;"
       class="subregion"
       id="blagoveschensk"
       sodipodi:cx="827.31494"
       sodipodi:cy="928.02155"
       sodipodi:rx="15"
       sodipodi:ry="15"
       d="m 842.31494,928.02155 c 0,8.28427 -6.71573,15 -15,15 -8.28427,0 -15,-6.71573 -15,-15 0,-8.28428 6.71573,-15 15,-15 8.28427,0 15,6.71572 15,15 z"
       transform="translate(0,-50)" />
    <path
       sodipodi:type="arc"
       style="fill:#2c2ca0;"
       class="subregion"
       id="raichihinsk"
       sodipodi:cx="1016.7186"
       sodipodi:cy="965.64972"
       sodipodi:rx="15"
       sodipodi:ry="15"
       d="m 1031.7186,965.64972 c 0,8.28427 -6.7157,15 -15,15 -8.2842,0 -15,-6.71573 -15,-15 0,-8.28427 6.7158,-15 15,-15 8.2843,0 15,6.71573 15,15 z"
       transform="translate(-6.0609153,-58.333759)" />
    <path
       sodipodi:type="arc"
       style="fill:#d45500;"
       class="subregion"
       id="progress"
       sodipodi:cx="1023.2845"
       sodipodi:cy="975.24615"
       sodipodi:rx="15"
       sodipodi:ry="15"
       d="m 1038.2845,975.24615 c 0,8.28428 -6.7157,15 -15,15 -8.2843,0 -15,-6.71572 -15,-15 0,-8.28427 6.7157,-15 15,-15 8.2843,0 15,6.71573 15,15 z"
       transform="translate(4.2931483,-42.171318)" />
  </g>
</svg>
