<?xml version="1.0" encoding="UTF-8" standalone="no"?>
<!-- Created with Inkscape (http://www.inkscape.org/) -->

<svg
   xmlns:dc="http://purl.org/dc/elements/1.1/"
   xmlns:cc="http://creativecommons.org/ns#"
   xmlns:rdf="http://www.w3.org/1999/02/22-rdf-syntax-ns#"
   xmlns:svg="http://www.w3.org/2000/svg"
   xmlns="http://www.w3.org/2000/svg"
   xmlns:xlink="http://www.w3.org/1999/xlink"
   xmlns:sodipodi="http://sodipodi.sourceforge.net/DTD/sodipodi-0.dtd"
   xmlns:inkscape="http://www.inkscape.org/namespaces/inkscape"
   width="1400"
   height="1100"
   id="svg2996"
   version="1.1"
   inkscape:version="0.48.0 r9654"
   sodipodi:docname="administrative-regionsonly.svg">
  <defs
     id="defs2998" />
  <sodipodi:namedview
     id="base"
     pagecolor="#ffffff"
     bordercolor="#666666"
     borderopacity="1.0"
     inkscape:pageopacity="0"
     inkscape:pageshadow="2"
     inkscape:zoom="0.49497475"
     inkscape:cx="820.87761"
     inkscape:cy="911.07709"
     inkscape:document-units="px"
     inkscape:current-layer="source"
     showgrid="false"
     fit-margin-top="0"
     fit-margin-left="0"
     fit-margin-right="0"
     fit-margin-bottom="0"
     inkscape:window-width="1024"
     inkscape:window-height="544"
     inkscape:window-x="0"
     inkscape:window-y="24"
     inkscape:window-maximized="1" />
  <metadata
     id="metadata3001">
    <rdf:RDF>
      <cc:Work
         rdf:about="">
        <dc:format>image/svg+xml</dc:format>
        <dc:type
           rdf:resource="http://purl.org/dc/dcmitype/StillImage" />
        <dc:title />
      </cc:Work>
    </rdf:RDF>
  </metadata>
  <g
     inkscape:label="Map"
     inkscape:groupmode="layer"
     id="map">
    <image
       sodipodi:absref="/home/envek/AmurMap/source/administrative.gif"
       xlink:href="source/administrative.gif"
       width="1400"
       height="1198"
       id="image3085"
       x="0"
       y="-125" />
  </g>
  <g
     inkscape:groupmode="layer"
     id="source"
     inkscape:label="Source">
    <path
       style="fill:#007f00;fill-opacity:0.49803922000000000;stroke:#000000;stroke-width:1px;stroke-linecap:butt;stroke-linejoin:miter;stroke-opacity:1"
       d="m 239.15362,343.6139 c 5.82734,-0.70785 4.89001,-3.65518 3.91434,-7.95495 -0.4588,-8.06772 -9.55236,-4.08334 -12.75318,-11.74303 -2.08744,-4.7203 -10.09903,-1.52843 -7.32361,-9.97525 0.57982,-5.42997 -6.22259,-3.34093 -3.78807,-9.47018 1.01068,-4.16919 0.71128,-7.46867 -1.76776,-12.12183 2.14566,-6.84145 -3.4857,-8.01722 -9.72272,-0.75762 -2.4056,1.65285 -5.11101,0.49182 -5.80838,5.17703 -1.70599,4.3484 -5.77926,1.51904 -6.31345,-5.17703 2.059,-6.64466 0.40212,-7.27503 5.80837,-11.99556 2.75913,-4.17964 7.72803,-9.65179 9.15451,-17.61453 11.08659,-4.37212 7.37918,-7.33634 5.61898,-16.98319 -1.11119,-3.90027 -4.7111,-7.44037 0.0631,-11.49048 4.24447,-4.87892 4.14482,-5.72599 -0.1894,-9.47019 -1.32395,-1.53942 -2.76629,-4.32777 -2.13655,-7.53288 1.08425,-5.51833 0.90569,-9.25353 -0.76764,-18.09974 1.43429,-5.16721 2.53511,-14.12432 -2.27285,-17.04632 -5.17908,-1.84993 -4.65384,-10.04267 -6.94479,-14.77348 -3.24489,-2.22758 -9.85092,-2.46456 -11.39961,-0.36798 -1.67298,2.26484 -3.40475,1.82968 -5.26791,2.89336 -3.73111,4.59116 -2.03133,6.6836 -7.26047,11.36421 -4.68604,7.24481 -7.96592,-0.49832 -10.54347,6.18719 -3.00389,4.3793 -3.37366,1.31438 -5.7424,-0.1439 -1.09796,-0.67594 -3.87453,1.62201 -6.00063,-0.55058 -0.0809,-11.18305 0.39935,-14.37224 -3.28299,-20.645 0.22334,-6.55922 -0.0252,-12.32139 -0.1894,-18.75095 5.20637,-4.3119 1.20655,-4.75589 -1.89404,-6.25032 -1.02765,-8.53524 -3.07957,-3.07572 -5.42957,-8.64943 2.70706,-7.25194 -1.5555,-9.86677 -1.19956,-15.08916 -0.19723,-5.79658 -7.33052,-9.20211 -10.48033,-4.04061 -9.19521,4.18712 -8.42999,-2.56851 -16.92005,0.37881 -3.54973,2.1334 -8.59123,1.72066 -9.47018,6.69226 -3.40113,5.40016 -15.528189,0.83553 -12.879448,10.6066 -3.3553,-0.14956 -11.866661,-2.81248 -13.63706,1.95717 3.600414,7.24627 -4.428744,9.12763 -10.03839,7.19734 1.88862,-5.55458 -1.307123,-6.83966 -6.250319,-7.38674 -5.640125,-0.73039 -3.584325,4.53611 -6.944799,7.70241 -1.966911,1.65477 -5.758127,8.6605 -4.293148,1.83091 -0.294663,-5.59735 -4.755818,-4.76395 -0.883884,-14.33154 2.471445,-5.84843 -3.015616,-3.0328 -5.808377,-12.12183 -1.960778,-4.98668 -10.776095,-9.53247 -5.366436,-15.02602 4.748746,-1.832341 8.634177,-2.887465 10.796006,-8.775702 4.710801,-3.06311 5.495033,-0.05156 8.460028,0.378813 0.75979,-5.871775 5.657024,-5.824586 10.101525,-5.618975 4.228099,-0.588246 9.542365,-2.098322 8.712566,-6.944803 -1.1843,-3.811969 -13.037349,-2.060716 -13.384521,-8.460026 1.540497,-4.976071 -7.855733,-4.511613 -10.922275,-9.280781 0.105255,-3.802314 3.02885,-8.916584 -4.861359,-8.144348 -5.923127,1.965947 -7.478234,-7.23412 -14.015866,-2.777923 -4.006446,3.873091 -9.417009,0.264366 -9.59645,-4.293148 -2.626812,-4.398011 -6.07022,-7.248596 -10.985379,-8.838835 -2.160512,-6.289469 3.484277,-8.126681 2.651651,-12.879445 C 14.664685,21.06882 14.194328,18.430699 5.8715117,16.008804 1.1892506,9.4540806 5.7282982,10.210696 6.2201528,8.2541864 6.9630351,5.2991345 4.7215895,4.6364802 7.5761441,2.43488 c 5.2849269,-3.40614901 8.2391339,-2.60935966 8.4600279,-9.470181 3.949827,-8.732712 13.157951,-1.2763551 20.076782,-8.207489 3.462615,-1.690975 2.940763,-4.492002 9.975256,-7.323606 6.848126,-2.321256 0.460947,-10.622972 13.258252,-9.217642 6.458775,-0.209362 7.710317,-4.908851 18.182746,-1.136422 4.971033,-0.326402 4.779489,-4.784128 14.268405,-2.777919 4.988447,-0.230977 2.150281,-7.042545 13.637057,-2.904189 9.33743,1.977937 6.26346,12.341618 16.9832,7.576145 9.07238,-2.035433 15.8344,-2.272009 25.31694,-0.505077 7.85963,8.168577 5.75715,16.824726 9.28078,17.614535 6.02041,-0.549991 3.77063,6.7595811 8.01809,9.5333147 -2.56652,5.06132458 -2.00426,8.3285688 3.28299,4.1668793 8.49084,-2.904074 13.42787,2.3756959 26.26396,-3.0935921 3.75958,-0.8272888 13.87417,-3.414089 17.67768,1.3889594 -2.40246,7.1995717 5.15953,3.8008849 6.31345,9.2807767 2.46015,7.282766 16.07214,0.095502 17.67767,9.47018 0.59705,5.29174 7.93776,4.559154 8.46002,10.227795 1.18765,5.038316 7.70665,5.39062 11.80616,-0.505077 6.38575,3.653382 8.26441,0.190827 7.51301,-5.050762 -0.27814,-5.636462 1.33747,-9.578934 6.18719,-8.965104 2.44068,1.269629 1.54123,5.612577 5.42957,6.313453 5.4687,2.273791 8.48629,8.36945 12.75317,7.197338 3.09538,0.823311 1.53873,3.465936 4.77881,3.371812 2.06416,-0.05996 3.28849,2.138612 7.59556,2.184026 7.79665,1.208878 11.97038,2.08358 23.04411,0.12627 8.54441,-1.333486 11.48157,1.553749 19.63484,-3.030458 4.02958,-3.067321 10.25648,0.439997 14.2684,2.399112 3.9762,5.471238 7.0208,2.420627 7.07107,9.722718 3.27975,3.216776 4.68937,4.458307 7.32361,9.659584 3.44329,1.559018 7.7797,3.477119 11.23794,7.134203 3.04569,3.954927 5.41596,8.486231 5.3033,12.87944 1.52204,7.811303 15.12378,-3.031078 16.92006,9.470186 5.32947,10.605191 1.59626,15.589729 7.82868,15.909898 3.7507,0.153078 0.60739,2.573245 5.93464,2.020313 6.93675,-4.101493 6.65392,-10.748518 13.88961,-6.881666 6.14549,10.125806 9.8787,2.378864 18.43528,7.891809 4.60778,3.965777 4.47911,-1.805842 8.27062,-4.293142 7.66251,1.503481 5.74317,-2.127196 12.0587,-5.177029 2.36918,-1.874742 10.00285,-4.214106 13.63706,0.378801 3.48349,1.5754 11.26595,-4.073591 12.12183,6.31346 3.38531,7.592217 13.87302,5.323677 19.50857,2.146569 5.26157,-1.701115 8.15855,-3.902356 14.71035,-3.282999 7.05829,2.892217 11.93913,1.309967 13.63705,3.91434 -1.94418,4.202167 -0.98381,8.083107 4.29315,5.177037 5.34614,-2.89809 -0.3464,5.43629 5.68211,5.42957 5.34561,1.64452 5.68506,6.05674 -0.25254,4.79822 -2.79814,-1.07002 -1.4775,6.80832 0.53226,7.02926 1.3555,0.14902 4.94538,0.43 8.43285,-1.78909 2.66676,-2.32043 5.78144,-1.18312 8.52315,-2.39911 5.56875,-0.65487 7.79153,3.95279 13.3214,4.98762 3.86576,-4.35488 7.9583,-6.36658 8.14435,-14.079 3.28233,-3.3747 7.31317,-5.25686 10.66974,-6.12405 -0.84727,12.34358 5.68682,10.49352 8.77569,4.41942 8.82208,1.19458 14.17202,-1.98542 10.29094,-6.944797 -2.66303,-10.671553 14.68694,-5.758973 22.22336,-11.301085 4.43521,3.8033 5.38992,1.857887 10.16465,1.641507 1.70996,10.804545 10.14378,11.319105 13.82647,13.131975 3.26229,-0.10253 5.68167,-6.842167 9.97525,-4.735087 3.58157,-0.48581 -1.76579,-5.30976 -1.38896,-7.70241 0.76565,-3.81926 4.42346,-4.459148 6.56599,-9.34391 0.75518,-5.094522 10.5488,-6.75899 10.10153,0.25253 -1.63035,8.258081 8.23525,1.626583 13.95273,1.262694 7.26148,-1.601617 12.13984,-3.33015 17.29887,-6.06091 0.24677,3.073657 0.56582,5.931162 0.5682,8.383206 0.60337,3.30044 -0.87917,9.210934 -3.84382,15.669717 -1.3692,6.43489 -0.75542,11.07947 -4.36367,13.44898 -2.61795,2.76786 -4.05557,5.76004 -4.79532,12.47311 -2.39096,5.27813 -2.55945,4.18837 -4.67486,7.35114 0.72634,9.87069 1.84879,15.66803 -6.81853,18.11961 -2.61467,0.99231 -5.63952,1.20404 -6.81853,7.38674 -3.08182,6.33336 -6.55466,10.55821 -5.42957,20.58186 4.23973,12.56726 8.35413,16.40435 1.51523,19.31917 -5.34161,3.63911 -12.41693,1.27609 -19.12976,3.91433 -9.10772,7.30136 -17.34788,10.44092 -32.89309,7.82869 -5.38759,-1.2761 -13.322,-0.84287 -21.21321,0.75762 -9.29752,2.14157 -4.70487,11.38165 -3.37336,17.37282 1.23016,5.76037 3.01032,9.72884 2.78163,13.97888 -0.71575,12.27741 5.97758,18.6682 2.90418,29.27911 -3.78165,3.83181 -5.77652,4.42199 -8.78503,4.56138 -4.29791,0.19913 -8.48275,1.34322 -11.01569,-1.17378 -0.6539,-2.91671 -2.61145,-2.62171 -3.01128,-5.71606 -0.31388,-2.42921 -2.51747,-3.36598 -5.13307,-5.26935 -8.31234,-6.51924 -8.90024,-1.79575 -11.61675,-2.84104 -10.2599,-7.25419 -10.54069,-11.02737 -16.79379,-10.0384 -2.39457,2.95512 5.64032,7.59971 -1.26269,7.44987 -3.06991,-6.02014 -4.14466,0.89332 -1.6415,5.17703 -1.74884,7.75656 -9.64145,5.90442 -13.13198,12.2481 -2.34961,6.90558 -6.79021,12.01648 -9.09137,18.56156 4.71136,3.60937 9.69926,7.7318 9.91212,11.23794 0.94093,8.51574 8.6791,4.61695 5.68211,18.11961 1.33088,9.46854 -1.78269,12.57937 2.08344,15.7205 7.48453,6.70521 1.94517,8.17665 2.90419,12.75318 -1.69024,7.90865 -5.5069,15.40398 -15.5311,13.76333 -5.32994,0.99095 -6.30051,4.92145 -15.15229,8.71256 -3.97988,1.75725 -4.69355,5.07201 -10.66974,7.82868 -4.55284,5.0427 -3.80979,1.56812 -9.9157,3.05536 -1.99767,2.41617 1.7778,3.16901 -1.00042,5.00405 -3.48031,2.29878 -4.18734,-2.41801 -6.88781,2.42093 -3.40689,1.23247 -9.19006,1.7397 -15.173,1.59578 -4.57688,-0.11009 -6.25821,-3.59197 -11.59605,-7.15162 -5.63761,-5.74249 -12.14967,-9.37726 -19.7611,-11.99556 -8.44897,-1.19721 -15.82418,-1.45871 -23.61232,-0.63135 -5.02703,-0.0463 -8.2002,-1.19807 -14.39467,-0.37881 -4.90292,-3.73212 -6.65675,-8.51842 -9.97526,-11.55362 -5.26275,5.42728 -14.43826,1.91708 -23.61231,-0.50507 0.34545,-4.91019 1.55592,-12.66794 6.31345,-15.84677 4.28909,-3.01056 7.39463,-5.0071 6.56599,-8.20749 -1.4082,-6.7655 -8.32245,-2.27271 -13.11386,-9.15704 -2.37762,-3.41619 -7.39201,-3.54014 -9.86711,-5.11137 -6.52135,-5.35316 -8.937,-8.52747 -11.55362,-11.99556 -3.53658,-6.00085 -12.38809,-6.3469 -12.87944,0.94702 -2.34732,5.30825 -4.69461,6.48196 -10.03839,6.9448 -5.21176,5.61584 -5.19167,8.24492 -8.27063,12.50064 0.51727,2.35746 1.63039,4.85943 0.10108,8.01038 2.83651,5.76431 3.16382,8.99862 -0.29048,9.60415 -4.62406,0.11784 -9.6865,-0.41185 -10.48034,-5.80837 -6.18837,-1.45011 -8.94468,-1.70213 -13.32139,2.84105 -4.04652,2.2088 -12.42235,0.25333 -10.03838,7.76555 1.08182,10.2605 -13.55924,10.19548 -15.15229,19.44544 -3.18511,5.36244 -8.78278,7.4607 -14.64721,5.05076 -1.52746,-2.75943 -0.37289,-5.59236 -5.17704,-7.57615 -14.48023,-1.97757 -20.55033,-5.28738 -29.04188,-9.84898 -4.52766,-3.34029 -7.24017,-3.05934 -7.07364,-14.02902 4.90162,-0.4262 6.31103,-4.78515 14.14471,-5.29015 z"
       id="path2983"
       inkscape:connector-curvature="0"
       sodipodi:nodetypes="ccccccccccccccscccscccsccccccccccccccccccccccccccccccscccccccccccccccccccccccscccccccccccccccccccccccscccccccccccccccccccccccccccccccscscccccccccccccccscsccccccccscccccccccccccccc" />
  </g>
</svg>
