<?xml version="1.0" encoding="UTF-8" standalone="no"?>
<!-- Created with Inkscape (http://www.inkscape.org/) -->

<svg
   xmlns:dc="http://purl.org/dc/elements/1.1/"
   xmlns:cc="http://creativecommons.org/ns#"
   xmlns:rdf="http://www.w3.org/1999/02/22-rdf-syntax-ns#"
   xmlns:svg="http://www.w3.org/2000/svg"
   xmlns="http://www.w3.org/2000/svg"
   xmlns:xlink="http://www.w3.org/1999/xlink"
   xmlns:sodipodi="http://sodipodi.sourceforge.net/DTD/sodipodi-0.dtd"
   xmlns:inkscape="http://www.inkscape.org/namespaces/inkscape"
   width="1400"
   height="1100"
   id="svg2996"
   version="1.1"
   inkscape:version="0.48.0 r9654"
   sodipodi:docname="administrative-regionsonly.svg">
  <defs
     id="defs2998" />
  <sodipodi:namedview
     id="base"
     pagecolor="#ffffff"
     bordercolor="#666666"
     borderopacity="1.0"
     inkscape:pageopacity="0"
     inkscape:pageshadow="2"
     inkscape:zoom="0.49497475"
     inkscape:cx="895.20098"
     inkscape:cy="783.78429"
     inkscape:document-units="px"
     inkscape:current-layer="map"
     showgrid="false"
     fit-margin-top="0"
     fit-margin-left="0"
     fit-margin-right="0"
     fit-margin-bottom="0"
     inkscape:window-width="1024"
     inkscape:window-height="544"
     inkscape:window-x="0"
     inkscape:window-y="24"
     inkscape:window-maximized="1" />
  <metadata
     id="metadata3001">
    <rdf:RDF>
      <cc:Work
         rdf:about="">
        <dc:format>image/svg+xml</dc:format>
        <dc:type
           rdf:resource="http://purl.org/dc/dcmitype/StillImage" />
        <dc:title />
      </cc:Work>
    </rdf:RDF>
  </metadata>
  <g
     inkscape:label="Map"
     inkscape:groupmode="layer"
     id="map">
    <image
       sodipodi:absref="/home/envek/AmurMap/source/administrative.gif"
       xlink:href="source/administrative.gif"
       width="1400"
       height="1198"
       id="image3085"
       x="0"
       y="-125" />
  </g>
  <g
     inkscape:groupmode="layer"
     id="source"
     inkscape:label="Source">
    <path
       style="fill:#007f00;fill-opacity:0.49803922;stroke:#000000;stroke-width:1px;stroke-linecap:butt;stroke-linejoin:miter;stroke-opacity:1"
       d="m 226.02163,348.9172 c 4.48925,-0.82299 8.26563,-4.6089 13.13199,-5.3033 4.05957,-0.89725 4.89001,-3.65518 3.91434,-7.95495 -0.77447,-6.67876 -10.43624,-5.34603 -12.75318,-11.74303 -2.15057,-4.59403 -10.16216,-3.35933 -7.32361,-9.97525 1.0849,-4.67236 -6.22259,-4.47735 -3.78807,-9.47018 1.01068,-4.16919 0.90068,-8.73136 -1.76776,-12.12183 2.33506,-8.35668 -8.41019,-6.06005 -9.72272,-0.75762 -3.28948,0.95837 -5.67922,1.12317 -5.80838,5.17703 -3.22122,4.66407 -9.06226,-0.43813 -6.31345,-5.17703 1.42765,-4.37182 0.97033,-9.67414 5.80837,-11.99556 4.7163,-4.74785 9.30639,-10.91448 9.84899,-17.5514 7.67733,-1.02599 8.57874,-11.25068 5.80838,-17.04632 -1.77409,-4.03285 -6.88783,-8.02724 -0.37881,-10.73287 3.61313,-3.11115 4.20796,-8.37764 -0.63134,-10.2278 -2.48209,-7.99547 -1.55967,-17.35726 -2.90419,-25.63262 2.94952,-4.599 1.52496,-13.05103 -2.27285,-17.04632 -4.92654,-2.35501 -5.47459,-9.97954 -6.94479,-14.77348 -4.64796,-2.03455 -11.38891,-3.20971 -14.89975,1.38896 -5.49888,1.49757 -3.10462,10.91361 -8.20749,13.88959 -3.29708,2.95166 -9.48115,0.57497 -11.36422,4.79823 -2.69163,4.51517 -6.50559,-1.51257 -9.84899,0.12627 -3.2376,-6.38483 -0.86334,-15.44553 -5.17703,-21.46575 0.22334,-6.55922 0.54304,-12.13199 0.37881,-18.56155 5.1825,-3.09643 0.2014,-7.22147 -3.66181,-8.20749 2.00281,-5.44164 -7.43585,-5.28542 -3.6618,-10.35406 2.39139,-3.46387 -1.5555,-7.84646 -1.76777,-11.61676 -1.33365,-5.03897 -6.32037,-7.68688 -10.48033,-4.04061 -5.53341,2.67189 -11.96552,-1.62149 -16.92005,0.37881 -3.54973,2.1334 -8.59123,1.72066 -9.47018,6.69226 -3.40113,5.40016 -14.70744,1.71941 -12.879448,10.6066 -3.797242,-0.65464 -11.045912,-0.4765 -14.268405,1.89404 3.537279,5.66791 -3.544861,11.40047 -8.08122,8.20749 -0.194819,-4.92324 -2.632948,-7.78668 -7.576144,-8.33376 -5.198183,-1.74054 -1.437751,7.18776 -6.944799,7.70241 -1.840642,1.40223 -7.841567,7.019 -4.04061,2.14658 -1.052277,-4.7766 -5.639701,-9.81471 -1.136422,-14.64721 2.471445,-5.84843 -5.099056,-7.01028 -5.808377,-12.12183 -2.276451,-4.2922 -10.207884,-9.09053 -5.050763,-14.26841 4.369938,-2.400547 9.012984,-4.781497 10.85914,-9.470177 3.006169,-3.75759 6.378917,0.95859 8.586297,0.75762 0.444118,-5.24043 4.962544,-6.70847 9.596449,-5.68211 3.40735,-0.08317 9.668634,-3.73982 8.712566,-7.32361 -4.467296,-2.29674 -12.279735,-2.81833 -12.626907,-9.21764 -2.247575,-4.53413 -9.307827,-3.62773 -11.616754,-8.83884 -1.725647,-2.91843 1.513621,-10.81062 -4.924494,-8.46002 -5.796858,1.46087 -9.435405,-5.845161 -15.026019,-2.399116 -3.753907,2.547266 -8.406856,0.516904 -8.586297,-4.04061 C 25.404891,41.725966 21.0776,39.064785 17.046324,37.285142 15.13835,32.132095 20.025525,28.274578 19.697975,24.405697 14.538416,21.573896 12.047754,15.779049 6.0609153,15.061786 0.08992366,11.144308 8.860797,7.068557 7.5761441,2.43488 11.977188,0.922767 16.194085,-1.752843 16.036172,-7.035301 c 4.454903,-7.911963 14.231238,-3.044122 20.076782,-8.207489 3.652019,-2.259186 5.655548,-5.817827 9.975256,-7.323606 3.501996,-4.594099 5.764248,-11.128048 13.258252,-9.217642 6.458775,-0.209362 12.129734,-4.34064 18.182746,-1.136422 5.034168,-0.326402 9.009503,-4.847263 14.268405,-2.272843 4.988447,-0.230977 7.769255,-6.348065 13.637057,-3.409265 7.00145,0.967784 8.72571,11.647138 17.1726,8.20749 7.80969,-2.035433 17.2865,-3.219027 25.12754,-1.136422 5.20798,4.822447 5.25207,13.415461 9.34391,18.182746 6.02041,-1.686413 2.38167,6.88585 7.57615,7.702413 -0.29367,3.924903 -0.74157,8.707376 3.6618,5.42957 8.49084,-2.904074 18.28923,2.501965 26.64277,-1.894036 5.27481,-0.259078 12.67461,-3.414089 17.04633,0.505076 -1.64484,5.936881 5.91715,4.053423 6.56599,8.965104 4.41732,5.767537 16.07214,0.095502 17.67767,9.47018 0.97586,4.976067 7.93776,4.559154 8.46002,10.227795 1.06138,5.669661 9.28501,4.822409 12.50064,0.757614 5.12306,1.506808 8.20128,-1.324402 6.81853,-6.313453 1.36336,-3.553022 1.33747,-9.578934 6.18719,-8.965104 2.44068,1.269629 1.03615,6.370191 5.42957,6.313453 5.34243,1.074235 9.62271,5.654665 14.52094,7.702414 1.06811,5.002793 6.85439,1.48333 8.33376,6.060915 8.49113,-1.569042 16.958,2.08358 25.38008,-0.505076 6.39784,-3.038118 14.89084,3.258382 19.57171,-3.409265 4.40839,-2.435976 9.68827,1.387015 14.2684,2.399112 2.08216,3.956009 8.8517,4.062125 7.07107,9.722718 2.39587,3.469314 7.65669,5.089652 7.07107,9.722719 4.89538,0.233193 7.52716,4.866078 11.49048,7.071068 5.69734,0.22999 7.24686,8.6125 5.3033,12.87944 3.41608,6.92742 17.71229,-0.6951 17.80394,8.96511 1.22573,5.30189 4.24791,10.03389 4.29315,15.65736 3.05622,0.46875 6.16323,2.51011 8.83883,3.66181 4.72704,-2.39686 9.05303,-9.10702 14.64722,-6.9448 4.25146,6.33773 12.40408,2.88394 17.42513,7.07106 4.1027,3.018757 6.81509,-0.66942 9.34391,-3.15672 5.51593,1.62975 5.93257,-4.96825 10.85914,-5.05076 4.89456,-0.86459 9.62404,-5.79247 13.76333,-0.88389 5.75633,0.18644 12.97058,-1.54821 12.12183,6.31346 3.95352,6.392657 13.55735,3.68218 19.95051,3.40926 5.1353,-1.06977 8.60049,-5.48072 14.26841,-4.54569 5.01221,-0.09515 9.95362,1.39315 13.63705,3.91434 -0.87089,3.318287 -0.16306,8.651317 4.29315,5.177037 4.02031,-1.50913 0.34808,6.13077 5.68211,5.42957 4.46173,-0.69146 3.85416,5.42539 -0.25254,4.79822 -5.16521,4.33885 4.70688,9.54495 8.96511,7.07107 3.1087,-0.48953 5.90771,-0.99371 5.80837,-3.78807 5.94755,-1.09681 11.83214,1.17487 16.03618,4.54568 5.88607,-2.0189 8.40024,-7.37673 9.21764,-13.00571 2.33531,-3.43784 7.1869,-6.26702 10.85914,-5.68211 -3.12011,7.48222 7.51772,8.41008 9.84898,3.40927 5.03401,1.95219 11.83604,-2.4905 7.95496,-7.449877 -1.96855,-9.6614 12.03529,-9.61018 17.67767,-7.19734 4.94029,2.41434 10.37755,-1.29884 15.15228,-1.51522 1.39429,6.82707 7.36586,11.824177 14.64722,11.743017 3.26229,-0.10253 4.41898,-6.400227 8.71256,-4.293147 3.58157,-0.48581 -1.76579,-5.30976 -1.38896,-7.70241 0.76565,-3.81926 6.06496,-4.90109 6.56599,-9.34391 1.95474,-4.65258 10.5488,-6.75899 10.10153,0.25253 0.76876,5.7327 9.81361,2.00539 13.25825,0.50508 5.80939,-1.91729 13.02372,-2.06746 18.18275,-4.79822 -0.0689,-0.77755 0.94463,5.61549 0.3788,7.87813 0.44547,11.0313 -5.687,19.217447 -8.20749,29.118697 -3.8678,6.0515 -6.22923,13.33292 -9.47018,19.82425 -0.28381,6.65083 1.28058,15.41549 -6.69226,17.5514 -3.18288,2.0656 -7.65983,2.90867 -6.9448,7.95495 -3.08182,6.33336 -9.14318,12.83105 -6.43972,20.58186 0.51479,6.12754 6.6495,13.12135 2.52538,18.68782 -4.20519,4.64927 -13.36395,1.6549 -18.94036,5.05076 -10.43354,4.01836 -20.56774,10.88286 -33.08249,8.5863 -6.96595,-1.4655 -14.52156,-3.17885 -21.21321,0.25254 -8.28737,-0.005 -4.32606,10.49777 -3.75217,16.74148 2.30345,5.4447 3.326,9.6657 3.16044,13.85261 0.92575,12.52995 5.78818,20.05716 2.90418,29.27911 -3.52911,3.76868 -5.77652,4.42199 -8.78503,4.56138 -4.29791,0.19913 -10.56619,1.40635 -10.70002,-1.55259 -1.34838,-1.59088 -3.82865,-2.37539 -3.32695,-5.33725 0.36728,-2.1683 -2.07553,-4.06046 -5.13307,-5.26935 -6.73398,-5.06715 -7.13247,-5.01561 -10.85914,-2.77791 -3.89768,-4.14377 -12.96062,-11.16802 -17.5514,-10.10153 -2.2683,2.32377 4.75644,9.80942 -1.26269,7.44987 -1.55468,-5.95701 -3.26078,2.78736 -1.6415,5.17703 -1.24376,6.30447 -10.08339,7.79845 -13.63706,12.12183 -2.85468,6.2111 -6.91648,12.58469 -8.58629,18.68783 4.64823,2.72549 7.61582,6.78478 9.09137,11.74302 2.83497,5.73782 8.17402,10.17279 6.81853,17.5514 2.34104,4.92285 -3.23478,12.6425 1.76777,15.78363 6.22184,1.21251 2.89219,8.49232 2.90419,12.75318 -0.30128,7.65611 -6.89586,15.40398 -15.5311,13.76333 -6.5295,-0.0192 -9.26783,7.44683 -15.15229,8.71256 -3.79048,2.32546 -6.27191,6.39784 -11.11168,7.07107 -5.04237,5.84138 -14.20291,3.90178 -17.80393,10.6066 -8.89816,1.67234 -20.60681,5.03651 -26.89532,-4.16688 -5.13253,-5.74249 -12.46534,-9.31412 -19.19289,-12.75317 -8.44897,-1.19721 -15.82418,-1.45871 -23.61232,-0.63135 -5.21643,0.33254 -10.15737,-1.76628 -14.89975,-2.52538 -5.53426,-1.58555 -5.70973,-10.15992 -10.98541,-10.98541 -6.39917,4.9222 -16.7111,3.81111 -22.47589,-1.26269 1.03993,-4.72078 2.94488,-10.20569 6.69226,-13.51079 4.28909,-3.01056 10.67763,-9.86846 4.29315,-13.8896 -8.08823,-0.87124 -14.93894,-6.63567 -21.59201,-10.85914 -5.19553,-1.81763 -7.1061,-6.69657 -11.11168,-9.59645 -2.33703,-5.74831 -12.32496,-6.66257 -13.63706,0.37881 -0.83209,4.92944 -4.06326,7.42898 -9.21764,7.32361 -3.31252,4.03682 -4.7838,9.7302 -6.69226,14.64721 -2.06956,4.69503 4.28132,13.18891 -1.38896,15.53109 -4.62406,0.11784 -9.74963,-0.72752 -10.48034,-5.80837 -5.43076,-1.32384 -9.70229,-0.50257 -13.76333,2.77792 -4.04652,2.2088 -12.48549,0.69527 -10.10152,8.20749 1.33436,10.00796 -13.05416,9.81667 -14.64721,19.06663 -3.18511,5.36244 -8.78278,7.4607 -14.64721,5.05076 -2.97955,-2.12808 -4.98171,-4.26653 -5.17704,-7.57615 -8.86126,-4.18728 -21.74989,-1.3099 -29.04188,-9.84898 -4.52766,-3.08775 -9.60829,-8.61035 -7.44988,-13.7002 z"
       id="path2983"
       inkscape:connector-curvature="0"
       sodipodi:nodetypes="ccccccccccccccccccccccccccccccccccccccccccccccccccccccccccccccccccccccccccccccccccccccccccccccccccccccccccccccccccccccccccccccscscccccccccccccccccccccccccccccccccccccc" />
  </g>
</svg>
